<?xml version="1.0" encoding="utf-8"?>
<!-- Generator: Adobe Illustrator 15.0.0, SVG Export Plug-In . SVG Version: 6.00 Build 0)  -->
<!DOCTYPE svg PUBLIC "-//W3C//DTD SVG 1.1//EN" "http://www.w3.org/Graphics/SVG/1.1/DTD/svg11.dtd">
<svg version="1.1" id="Layer_1" xmlns="http://www.w3.org/2000/svg" xmlns:xlink="http://www.w3.org/1999/xlink" x="0px" y="0px"
	 width="4680px" height="1693px" viewBox="0 0 4680 1693" enable-background="new 0 0 4680 1693" xml:space="preserve">
<g>
	<rect x="4536" y="1549" width="36" height="36"/>
	<rect x="3096" y="1549" width="36" height="36"/>
	<rect x="2952" y="1549" width="36" height="36"/>
	<rect x="2808" y="1549" width="36" height="36"/>
	<rect x="2664" y="1549" width="36" height="36"/>
	<rect x="1224" y="1549" width="36" height="36"/>
	<rect x="1080" y="1549" width="36" height="36"/>
	<rect x="936" y="1549" width="36" height="36"/>
	<rect x="792" y="1549" width="36" height="36"/>
	<rect x="648" y="1549" width="36" height="36"/>
	<rect x="4608" y="1477" width="36" height="36"/>
	<rect x="3024" y="1477" width="36" height="36"/>
	<rect x="2880" y="1477" width="36" height="36"/>
	<rect x="2736" y="1477" width="36" height="36"/>
	<rect x="1152" y="1477" width="36" height="36"/>
	<rect x="1008" y="1477" width="36" height="36"/>
	<rect x="864" y="1477" width="36" height="36"/>
	<rect x="4608" y="1405" width="36" height="36"/>
	<rect x="4464" y="1405" width="36" height="36"/>
	<rect x="4320" y="1405" width="36" height="36"/>
	<rect x="4176" y="1405" width="36" height="36"/>
	<rect x="3456" y="1405" width="36" height="36"/>
	<rect x="3312" y="1405" width="36" height="36"/>
	<rect x="3168" y="1405" width="36" height="36"/>
	<rect x="3024" y="1405" width="36" height="36"/>
	<rect x="2880" y="1405" width="36" height="36"/>
	<rect x="2736" y="1405" width="36" height="36"/>
	<rect x="2592" y="1405" width="36" height="36"/>
	<rect x="2448" y="1405" width="36" height="36"/>
	<rect x="2304" y="1405" width="36" height="36"/>
	<rect x="1440" y="1405" width="36" height="36"/>
	<rect x="1296" y="1405" width="36" height="36"/>
	<rect x="1152" y="1405" width="36" height="36"/>
	<rect x="1008" y="1405" width="36" height="36"/>
	<rect x="864" y="1405" width="36" height="36"/>
	<rect x="720" y="1405" width="36" height="36"/>
	<rect x="576" y="1405" width="36" height="36"/>
	<rect x="432" y="1405" width="36" height="36"/>
	<rect x="288" y="1405" width="36" height="36"/>
	<rect x="4536" y="1333" width="36" height="36"/>
	<rect x="4392" y="1333" width="36" height="36"/>
	<rect x="4248" y="1333" width="36" height="36"/>
	<rect x="3384" y="1333" width="36" height="36"/>
	<rect x="3240" y="1333" width="36" height="36"/>
	<rect x="3096" y="1333" width="36" height="36"/>
	<rect x="2952" y="1333" width="36" height="36"/>
	<rect x="2808" y="1333" width="36" height="36"/>
	<rect x="2664" y="1333" width="36" height="36"/>
	<rect x="2520" y="1333" width="36" height="36"/>
	<rect x="2376" y="1333" width="36" height="36"/>
	<rect x="1512" y="1333" width="36" height="36"/>
	<rect x="1368" y="1333" width="36" height="36"/>
	<rect x="1224" y="1333" width="36" height="36"/>
	<rect x="1080" y="1333" width="36" height="36"/>
	<rect x="936" y="1333" width="36" height="36"/>
	<rect x="792" y="1333" width="36" height="36"/>
	<rect x="648" y="1333" width="36" height="36"/>
	<rect x="504" y="1333" width="36" height="36"/>
	<rect x="360" y="1333" width="36" height="36"/>
	<rect x="4608" y="1261" width="36" height="36"/>
	<rect x="4536" y="1261" width="36" height="36"/>
	<rect x="4464" y="1261" width="36" height="36"/>
	<rect x="4392" y="1261" width="36" height="36"/>
	<rect x="4320" y="1261" width="36" height="36"/>
	<rect x="4248" y="1261" width="36" height="36"/>
	<rect x="4176" y="1261" width="36" height="36"/>
	<rect x="4104" y="1261" width="36" height="36"/>
	<rect x="3960" y="1261" width="36" height="36"/>
	<rect x="3816" y="1261" width="36" height="36"/>
	<rect x="3672" y="1261" width="36" height="36"/>
	<rect x="3528" y="1261" width="36" height="36"/>
	<rect x="3456" y="1261" width="36" height="36"/>
	<rect x="3384" y="1261" width="36" height="36"/>
	<rect x="3312" y="1261" width="36" height="36"/>
	<rect x="3240" y="1261" width="36" height="36"/>
	<rect x="3168" y="1261" width="36" height="36"/>
	<rect x="3096" y="1261" width="36" height="36"/>
	<rect x="3024" y="1261" width="36" height="36"/>
	<rect x="2952" y="1261" width="36" height="36"/>
	<rect x="2880" y="1261" width="36" height="36"/>
	<rect x="2808" y="1261" width="36" height="36"/>
	<rect x="2736" y="1261" width="36" height="36"/>
	<rect x="2664" y="1261" width="36" height="36"/>
	<rect x="2592" y="1261" width="36" height="36"/>
	<rect x="2520" y="1261" width="36" height="36"/>
	<rect x="2448" y="1261" width="36" height="36"/>
	<rect x="2376" y="1261" width="36" height="36"/>
	<rect x="2304" y="1261" width="36" height="36"/>
	<rect x="2232" y="1261" width="36" height="36"/>
	<rect x="2088" y="1261" width="36" height="36"/>
	<rect x="1944" y="1261" width="36" height="36"/>
	<rect x="1800" y="1261" width="36" height="36"/>
	<rect x="1656" y="1261" width="36" height="36"/>
	<rect x="1584" y="1261" width="36" height="36"/>
	<rect x="1512" y="1261" width="36" height="36"/>
	<rect x="1440" y="1261" width="36" height="36"/>
	<rect x="1368" y="1261" width="36" height="36"/>
	<rect x="1296" y="1261" width="36" height="36"/>
	<rect x="1224" y="1261" width="36" height="36"/>
	<rect x="1152" y="1261" width="36" height="36"/>
	<rect x="1080" y="1261" width="36" height="36"/>
	<rect x="1008" y="1261" width="36" height="36"/>
	<rect x="936" y="1261" width="36" height="36"/>
	<rect x="864" y="1261" width="36" height="36"/>
	<rect x="792" y="1261" width="36" height="36"/>
	<rect x="720" y="1261" width="36" height="36"/>
	<rect x="648" y="1261" width="36" height="36"/>
	<rect x="576" y="1261" width="36" height="36"/>
	<rect x="504" y="1261" width="36" height="36"/>
	<rect x="432" y="1261" width="36" height="36"/>
	<rect x="360" y="1261" width="36" height="36"/>
	<rect x="288" y="1261" width="36" height="36"/>
	<rect x="216" y="1261" width="36" height="36"/>
	<rect x="144" y="1261" width="36" height="36"/>
	<rect x="72" y="1261" width="36" height="36"/>
	<rect x="4608" y="1189" width="36" height="36"/>
	<rect x="4536" y="1189" width="36" height="36"/>
	<rect x="4464" y="1189" width="36" height="36"/>
	<rect x="4392" y="1189" width="36" height="36"/>
	<rect x="4320" y="1189" width="36" height="36"/>
	<rect x="4248" y="1189" width="36" height="36"/>
	<rect x="4176" y="1189" width="36" height="36"/>
	<rect x="4032" y="1189" width="36" height="36"/>
	<rect x="3888" y="1189" width="36" height="36"/>
	<rect x="3744" y="1189" width="36" height="36"/>
	<rect x="3600" y="1189" width="36" height="36"/>
	<rect x="3456" y="1189" width="36" height="36"/>
	<rect x="3384" y="1189" width="36" height="36"/>
	<rect x="3312" y="1189" width="36" height="36"/>
	<rect x="3240" y="1189" width="36" height="36"/>
	<rect x="3168" y="1189" width="36" height="36"/>
	<rect x="3096" y="1189" width="36" height="36"/>
	<rect x="3024" y="1189" width="36" height="36"/>
	<rect x="2952" y="1189" width="36" height="36"/>
	<rect x="2880" y="1189" width="36" height="36"/>
	<rect x="2808" y="1189" width="36" height="36"/>
	<rect x="2736" y="1189" width="36" height="36"/>
	<rect x="2664" y="1189" width="36" height="36"/>
	<rect x="2592" y="1189" width="36" height="36"/>
	<rect x="2520" y="1189" width="36" height="36"/>
	<rect x="2448" y="1189" width="36" height="36"/>
	<rect x="2376" y="1189" width="36" height="36"/>
	<rect x="2304" y="1189" width="36" height="36"/>
	<rect x="2160" y="1189" width="36" height="36"/>
	<rect x="2016" y="1189" width="36" height="36"/>
	<rect x="1872" y="1189" width="36" height="36"/>
	<rect x="1728" y="1189" width="36" height="36"/>
	<rect x="1584" y="1189" width="36" height="36"/>
	<rect x="1512" y="1189" width="36" height="36"/>
	<rect x="1440" y="1189" width="36" height="36"/>
	<rect x="1368" y="1189" width="36" height="36"/>
	<rect x="1296" y="1189" width="36" height="36"/>
	<rect x="1224" y="1189" width="36" height="36"/>
	<rect x="1152" y="1189" width="36" height="36"/>
	<rect x="1080" y="1189" width="36" height="36"/>
	<rect x="1008" y="1189" width="36" height="36"/>
	<rect x="936" y="1189" width="36" height="36"/>
	<rect x="864" y="1189" width="36" height="36"/>
	<rect x="792" y="1189" width="36" height="36"/>
	<rect x="720" y="1189" width="36" height="36"/>
	<rect x="648" y="1189" width="36" height="36"/>
	<rect x="576" y="1189" width="36" height="36"/>
	<rect x="504" y="1189" width="36" height="36"/>
	<rect x="432" y="1189" width="36" height="36"/>
	<rect x="360" y="1189" width="36" height="36"/>
	<rect x="288" y="1189" width="36" height="36"/>
	<rect x="216" y="1189" width="36" height="36"/>
	<rect x="144" y="1189" width="36" height="36"/>
	<rect x="4608" y="1117" width="36" height="36"/>
	<rect x="4536" y="1117" width="36" height="36"/>
	<rect x="4464" y="1117" width="36" height="36"/>
	<rect x="4392" y="1117" width="36" height="36"/>
	<rect x="4320" y="1117" width="36" height="36"/>
	<rect x="4248" y="1117" width="36" height="36"/>
	<rect x="4176" y="1117" width="36" height="36"/>
	<rect x="4104" y="1117" width="36" height="36"/>
	<rect x="4032" y="1117" width="36" height="36"/>
	<rect x="3960" y="1117" width="36" height="36"/>
	<rect x="3888" y="1117" width="36" height="36"/>
	<rect x="3816" y="1117" width="36" height="36"/>
	<rect x="3744" y="1117" width="36" height="36"/>
	<rect x="3672" y="1117" width="36" height="36"/>
	<rect x="3600" y="1117" width="36" height="36"/>
	<rect x="3528" y="1117" width="36" height="36"/>
	<rect x="3456" y="1117" width="36" height="36"/>
	<rect x="3384" y="1117" width="36" height="36"/>
	<rect x="3312" y="1117" width="36" height="36"/>
	<rect x="3240" y="1117" width="36" height="36"/>
	<rect x="3168" y="1117" width="36" height="36"/>
	<rect x="3096" y="1117" width="36" height="36"/>
	<rect x="3024" y="1117" width="36" height="36"/>
	<rect x="2952" y="1117" width="36" height="36"/>
	<rect x="2880" y="1117" width="36" height="36"/>
	<rect x="2808" y="1117" width="36" height="36"/>
	<rect x="2736" y="1117" width="36" height="36"/>
	<rect x="2664" y="1117" width="36" height="36"/>
	<rect x="2592" y="1117" width="36" height="36"/>
	<rect x="2520" y="1117" width="36" height="36"/>
	<rect x="2448" y="1117" width="36" height="36"/>
	<rect x="2376" y="1117" width="36" height="36"/>
	<rect x="2304" y="1117" width="36" height="36"/>
	<rect x="2232" y="1117" width="36" height="36"/>
	<rect x="2160" y="1117" width="36" height="36"/>
	<rect x="2088" y="1117" width="36" height="36"/>
	<rect x="2016" y="1117" width="36" height="36"/>
	<rect x="1944" y="1117" width="36" height="36"/>
	<rect x="1872" y="1117" width="36" height="36"/>
	<rect x="1800" y="1117" width="36" height="36"/>
	<rect x="1728" y="1117" width="36" height="36"/>
	<rect x="1656" y="1117" width="36" height="36"/>
	<rect x="1584" y="1117" width="36" height="36"/>
	<rect x="1512" y="1117" width="36" height="36"/>
	<rect x="1440" y="1117" width="36" height="36"/>
	<rect x="1368" y="1117" width="36" height="36"/>
	<rect x="1296" y="1117" width="36" height="36"/>
	<rect x="1224" y="1117" width="36" height="36"/>
	<rect x="1152" y="1117" width="36" height="36"/>
	<rect x="1080" y="1117" width="36" height="36"/>
	<rect x="1008" y="1117" width="36" height="36"/>
	<rect x="936" y="1117" width="36" height="36"/>
	<rect x="864" y="1117" width="36" height="36"/>
	<rect x="792" y="1117" width="36" height="36"/>
	<rect x="720" y="1117" width="36" height="36"/>
	<rect x="648" y="1117" width="36" height="36"/>
	<rect x="576" y="1117" width="36" height="36"/>
	<rect x="504" y="1117" width="36" height="36"/>
	<rect x="432" y="1117" width="36" height="36"/>
	<rect x="360" y="1117" width="36" height="36"/>
	<rect x="288" y="1117" width="36" height="36"/>
	<rect x="216" y="1117" width="36" height="36"/>
	<rect x="144" y="1117" width="36" height="36"/>
	<rect x="72" y="1117" width="36" height="36"/>
	<rect x="4572" y="1081" width="36" height="36"/>
	<rect x="4428" y="1081" width="36" height="36"/>
	<rect x="4284" y="1081" width="36" height="36"/>
	<rect x="3276" y="1081" width="36" height="36"/>
	<rect x="3132" y="1081" width="36" height="36"/>
	<rect x="2988" y="1081" width="36" height="36"/>
	<rect x="2844" y="1081" width="36" height="36"/>
	<rect x="2700" y="1081" width="36" height="36"/>
	<rect x="2556" y="1081" width="36" height="36"/>
	<rect x="2412" y="1081" width="36" height="36"/>
	<rect x="1404" y="1081" width="36" height="36"/>
	<rect x="1260" y="1081" width="36" height="36"/>
	<rect x="1116" y="1081" width="36" height="36"/>
	<rect x="972" y="1081" width="36" height="36"/>
	<rect x="828" y="1081" width="36" height="36"/>
	<rect x="684" y="1081" width="36" height="36"/>
	<rect x="540" y="1081" width="36" height="36"/>
	<rect x="396" y="1081" width="36" height="36"/>
	<rect x="4608" y="1045" width="36" height="36"/>
	<rect x="4536" y="1045" width="36" height="36"/>
	<rect x="4464" y="1045" width="36" height="36"/>
	<rect x="4392" y="1045" width="36" height="36"/>
	<rect x="4320" y="1045" width="36" height="36"/>
	<rect x="4248" y="1045" width="36" height="36"/>
	<rect x="4176" y="1045" width="36" height="36"/>
	<rect x="4104" y="1045" width="36" height="36"/>
	<rect x="4032" y="1045" width="36" height="36"/>
	<rect x="3960" y="1045" width="36" height="36"/>
	<rect x="3888" y="1045" width="36" height="36"/>
	<rect x="3816" y="1045" width="36" height="36"/>
	<rect x="3744" y="1045" width="36" height="36"/>
	<rect x="3672" y="1045" width="36" height="36"/>
	<rect x="3600" y="1045" width="36" height="36"/>
	<rect x="3528" y="1045" width="36" height="36"/>
	<rect x="3456" y="1045" width="36" height="36"/>
	<rect x="3384" y="1045" width="36" height="36"/>
	<rect x="3312" y="1045" width="36" height="36"/>
	<rect x="3240" y="1045" width="36" height="36"/>
	<rect x="3168" y="1045" width="36" height="36"/>
	<rect x="3096" y="1045" width="36" height="36"/>
	<rect x="3024" y="1045" width="36" height="36"/>
	<rect x="2952" y="1045" width="36" height="36"/>
	<rect x="2880" y="1045" width="36" height="36"/>
	<rect x="2808" y="1045" width="36" height="36"/>
	<rect x="2736" y="1045" width="36" height="36"/>
	<rect x="2664" y="1045" width="36" height="36"/>
	<rect x="2592" y="1045" width="36" height="36"/>
	<rect x="2520" y="1045" width="36" height="36"/>
	<rect x="2448" y="1045" width="36" height="36"/>
	<rect x="2376" y="1045" width="36" height="36"/>
	<rect x="2304" y="1045" width="36" height="36"/>
	<rect x="2232" y="1045" width="36" height="36"/>
	<rect x="2160" y="1045" width="36" height="36"/>
	<rect x="2088" y="1045" width="36" height="36"/>
	<rect x="2016" y="1045" width="36" height="36"/>
	<rect x="1944" y="1045" width="36" height="36"/>
	<rect x="1872" y="1045" width="36" height="36"/>
	<rect x="1800" y="1045" width="36" height="36"/>
	<rect x="1728" y="1045" width="36" height="36"/>
	<rect x="1656" y="1045" width="36" height="36"/>
	<rect x="1584" y="1045" width="36" height="36"/>
	<rect x="1512" y="1045" width="36" height="36"/>
	<rect x="1440" y="1045" width="36" height="36"/>
	<rect x="1368" y="1045" width="36" height="36"/>
	<rect x="1296" y="1045" width="36" height="36"/>
	<rect x="1224" y="1045" width="36" height="36"/>
	<rect x="1152" y="1045" width="36" height="36"/>
	<rect x="1080" y="1045" width="36" height="36"/>
	<rect x="1008" y="1045" width="36" height="36"/>
	<rect x="936" y="1045" width="36" height="36"/>
	<rect x="864" y="1045" width="36" height="36"/>
	<rect x="792" y="1045" width="36" height="36"/>
	<rect x="720" y="1045" width="36" height="36"/>
	<rect x="648" y="1045" width="36" height="36"/>
	<rect x="576" y="1045" width="36" height="36"/>
	<rect x="504" y="1045" width="36" height="36"/>
	<rect x="432" y="1045" width="36" height="36"/>
	<rect x="360" y="1045" width="36" height="36"/>
	<rect x="288" y="1045" width="36" height="36"/>
	<rect x="216" y="1045" width="36" height="36"/>
	<rect x="144" y="1045" width="36" height="36"/>
	<rect x="72" y="1045" width="36" height="36"/>
	<rect x="4500" y="1009" width="36" height="36"/>
	<rect x="4356" y="1009" width="36" height="36"/>
	<rect x="3204" y="1009" width="36" height="36"/>
	<rect x="3060" y="1009" width="36" height="36"/>
	<rect x="2916" y="1009" width="36" height="36"/>
	<rect x="2772" y="1009" width="36" height="36"/>
	<rect x="2628" y="1009" width="36" height="36"/>
	<rect x="2484" y="1009" width="36" height="36"/>
	<rect x="1332" y="1009" width="36" height="36"/>
	<rect x="1188" y="1009" width="36" height="36"/>
	<rect x="1044" y="1009" width="36" height="36"/>
	<rect x="900" y="1009" width="36" height="36"/>
	<rect x="756" y="1009" width="36" height="36"/>
	<rect x="612" y="1009" width="36" height="36"/>
	<rect x="468" y="1009" width="36" height="36"/>
	<rect x="4608" y="973" width="36" height="36"/>
	<rect x="4536" y="973" width="36" height="36"/>
	<rect x="4464" y="973" width="36" height="36"/>
	<rect x="4392" y="973" width="36" height="36"/>
	<rect x="4320" y="973" width="36" height="36"/>
	<rect x="4248" y="973" width="36" height="36"/>
	<rect x="4176" y="973" width="36" height="36"/>
	<rect x="4104" y="973" width="36" height="36"/>
	<rect x="4032" y="973" width="36" height="36"/>
	<rect x="3960" y="973" width="36" height="36"/>
	<rect x="3888" y="973" width="36" height="36"/>
	<rect x="3816" y="973" width="36" height="36"/>
	<rect x="3744" y="973" width="36" height="36"/>
	<rect x="3672" y="973" width="36" height="36"/>
	<rect x="3600" y="973" width="36" height="36"/>
	<rect x="3528" y="973" width="36" height="36"/>
	<rect x="3456" y="973" width="36" height="36"/>
	<rect x="3384" y="973" width="36" height="36"/>
	<rect x="3312" y="973" width="36" height="36"/>
	<rect x="3240" y="973" width="36" height="36"/>
	<rect x="3168" y="973" width="36" height="36"/>
	<rect x="3096" y="973" width="36" height="36"/>
	<rect x="3024" y="973" width="36" height="36"/>
	<rect x="2952" y="973" width="36" height="36"/>
	<rect x="2880" y="973" width="36" height="36"/>
	<rect x="2808" y="973" width="36" height="36"/>
	<rect x="2736" y="973" width="36" height="36"/>
	<rect x="2664" y="973" width="36" height="36"/>
	<rect x="2592" y="973" width="36" height="36"/>
	<rect x="2520" y="973" width="36" height="36"/>
	<rect x="2448" y="973" width="36" height="36"/>
	<rect x="2376" y="973" width="36" height="36"/>
	<rect x="2304" y="973" width="36" height="36"/>
	<rect x="2232" y="973" width="36" height="36"/>
	<rect x="2160" y="973" width="36" height="36"/>
	<rect x="2088" y="973" width="36" height="36"/>
	<rect x="2016" y="973" width="36" height="36"/>
	<rect x="1944" y="973" width="36" height="36"/>
	<rect x="1872" y="973" width="36" height="36"/>
	<rect x="1800" y="973" width="36" height="36"/>
	<rect x="1728" y="973" width="36" height="36"/>
	<rect x="1656" y="973" width="36" height="36"/>
	<rect x="1584" y="973" width="36" height="36"/>
	<rect x="1512" y="973" width="36" height="36"/>
	<rect x="1440" y="973" width="36" height="36"/>
	<rect x="1368" y="973" width="36" height="36"/>
	<rect x="1296" y="973" width="36" height="36"/>
	<rect x="1224" y="973" width="36" height="36"/>
	<rect x="1152" y="973" width="36" height="36"/>
	<rect x="1080" y="973" width="36" height="36"/>
	<rect x="1008" y="973" width="36" height="36"/>
	<rect x="936" y="973" width="36" height="36"/>
	<rect x="864" y="973" width="36" height="36"/>
	<rect x="792" y="973" width="36" height="36"/>
	<rect x="720" y="973" width="36" height="36"/>
	<rect x="648" y="973" width="36" height="36"/>
	<rect x="576" y="973" width="36" height="36"/>
	<rect x="504" y="973" width="36" height="36"/>
	<rect x="432" y="973" width="36" height="36"/>
	<rect x="360" y="973" width="36" height="36"/>
	<rect x="288" y="973" width="36" height="36"/>
	<rect x="216" y="973" width="36" height="36"/>
	<rect x="144" y="973" width="36" height="36"/>
	<rect x="72" y="973" width="36" height="36"/>
	<rect x="4572" y="937" width="36" height="36"/>
	<rect x="4500" y="937" width="36" height="36"/>
	<rect x="4428" y="937" width="36" height="36"/>
	<rect x="4356" y="937" width="36" height="36"/>
	<rect x="4284" y="937" width="36" height="36"/>
	<rect x="4212" y="937" width="36" height="36"/>
	<rect x="4068" y="937" width="36" height="36"/>
	<rect x="3924" y="937" width="36" height="36"/>
	<rect x="3780" y="937" width="36" height="36"/>
	<rect x="3636" y="937" width="36" height="36"/>
	<rect x="3492" y="937" width="36" height="36"/>
	<rect x="3348" y="937" width="36" height="36"/>
	<rect x="3276" y="937" width="36" height="36"/>
	<rect x="3204" y="937" width="36" height="36"/>
	<rect x="3132" y="937" width="36" height="36"/>
	<rect x="3060" y="937" width="36" height="36"/>
	<rect x="2988" y="937" width="36" height="36"/>
	<rect x="2916" y="937" width="36" height="36"/>
	<rect x="2844" y="937" width="36" height="36"/>
	<rect x="2772" y="937" width="36" height="36"/>
	<rect x="2700" y="937" width="36" height="36"/>
	<rect x="2628" y="937" width="36" height="36"/>
	<rect x="2556" y="937" width="36" height="36"/>
	<rect x="2484" y="937" width="36" height="36"/>
	<rect x="2412" y="937" width="36" height="36"/>
	<rect x="2340" y="937" width="36" height="36"/>
	<rect x="2196" y="937" width="36" height="36"/>
	<rect x="2052" y="937" width="36" height="36"/>
	<rect x="1908" y="937" width="36" height="36"/>
	<rect x="1764" y="937" width="36" height="36"/>
	<rect x="1620" y="937" width="36" height="36"/>
	<rect x="1476" y="937" width="36" height="36"/>
	<rect x="1404" y="937" width="36" height="36"/>
	<rect x="1332" y="937" width="36" height="36"/>
	<rect x="1260" y="937" width="36" height="36"/>
	<rect x="1188" y="937" width="36" height="36"/>
	<rect x="1116" y="937" width="36" height="36"/>
	<rect x="1044" y="937" width="36" height="36"/>
	<rect x="972" y="937" width="36" height="36"/>
	<rect x="900" y="937" width="36" height="36"/>
	<rect x="828" y="937" width="36" height="36"/>
	<rect x="756" y="937" width="36" height="36"/>
	<rect x="684" y="937" width="36" height="36"/>
	<rect x="612" y="937" width="36" height="36"/>
	<rect x="540" y="937" width="36" height="36"/>
	<rect x="468" y="937" width="36" height="36"/>
	<rect x="396" y="937" width="36" height="36"/>
	<rect x="324" y="937" width="36" height="36"/>
	<rect x="252" y="937" width="36" height="36"/>
	<rect x="180" y="937" width="36" height="36"/>
	<rect x="36" y="937" width="36" height="36"/>
	<rect x="4608" y="901" width="36" height="36"/>
	<rect x="4536" y="901" width="36" height="36"/>
	<rect x="4464" y="901" width="36" height="36"/>
	<rect x="4392" y="901" width="36" height="36"/>
	<rect x="4320" y="901" width="36" height="36"/>
	<rect x="4248" y="901" width="36" height="36"/>
	<rect x="4176" y="901" width="36" height="36"/>
	<rect x="4104" y="901" width="36" height="36"/>
	<rect x="4032" y="901" width="36" height="36"/>
	<rect x="3960" y="901" width="36" height="36"/>
	<rect x="3888" y="901" width="36" height="36"/>
	<rect x="3816" y="901" width="36" height="36"/>
	<rect x="3744" y="901" width="36" height="36"/>
	<rect x="3672" y="901" width="36" height="36"/>
	<rect x="3600" y="901" width="36" height="36"/>
	<rect x="3528" y="901" width="36" height="36"/>
	<rect x="3456" y="901" width="36" height="36"/>
	<rect x="3384" y="901" width="36" height="36"/>
	<rect x="3312" y="901" width="36" height="36"/>
	<rect x="3240" y="901" width="36" height="36"/>
	<rect x="3168" y="901" width="36" height="36"/>
	<rect x="3096" y="901" width="36" height="36"/>
	<rect x="3024" y="901" width="36" height="36"/>
	<rect x="2952" y="901" width="36" height="36"/>
	<rect x="2880" y="901" width="36" height="36"/>
	<rect x="2808" y="901" width="36" height="36"/>
	<rect x="2736" y="901" width="36" height="36"/>
	<rect x="2664" y="901" width="36" height="36"/>
	<rect x="2592" y="901" width="36" height="36"/>
	<rect x="2520" y="901" width="36" height="36"/>
	<rect x="2448" y="901" width="36" height="36"/>
	<rect x="2376" y="901" width="36" height="36"/>
	<rect x="2304" y="901" width="36" height="36"/>
	<rect x="2232" y="901" width="36" height="36"/>
	<rect x="2160" y="901" width="36" height="36"/>
	<rect x="2088" y="901" width="36" height="36"/>
	<rect x="2016" y="901" width="36" height="36"/>
	<rect x="1944" y="901" width="36" height="36"/>
	<rect x="1872" y="901" width="36" height="36"/>
	<rect x="1800" y="901" width="36" height="36"/>
	<rect x="1728" y="901" width="36" height="36"/>
	<rect x="1656" y="901" width="36" height="36"/>
	<rect x="1584" y="901" width="36" height="36"/>
	<rect x="1512" y="901" width="36" height="36"/>
	<rect x="1440" y="901" width="36" height="36"/>
	<rect x="1368" y="901" width="36" height="36"/>
	<rect x="1296" y="901" width="36" height="36"/>
	<rect x="1224" y="901" width="36" height="36"/>
	<rect x="1152" y="901" width="36" height="36"/>
	<rect x="1080" y="901" width="36" height="36"/>
	<rect x="1008" y="901" width="36" height="36"/>
	<rect x="936" y="901" width="36" height="36"/>
	<rect x="864" y="901" width="36" height="36"/>
	<rect x="792" y="901" width="36" height="36"/>
	<rect x="720" y="901" width="36" height="36"/>
	<rect x="648" y="901" width="36" height="36"/>
	<rect x="576" y="901" width="36" height="36"/>
	<rect x="504" y="901" width="36" height="36"/>
	<rect x="432" y="901" width="36" height="36"/>
	<rect x="360" y="901" width="36" height="36"/>
	<rect x="288" y="901" width="36" height="36"/>
	<rect x="216" y="901" width="36" height="36"/>
	<rect x="144" y="901" width="36" height="36"/>
	<rect x="72" y="901" width="36" height="36"/>
	<rect x="4572" y="865" width="36" height="36"/>
	<rect x="4500" y="865" width="36" height="36"/>
	<rect x="4428" y="865" width="36" height="36"/>
	<rect x="4356" y="865" width="36" height="36"/>
	<rect x="4284" y="865" width="36" height="36"/>
	<rect x="4140" y="865" width="36" height="36"/>
	<rect x="3996" y="865" width="36" height="36"/>
	<rect x="3852" y="865" width="36" height="36"/>
	<rect x="3708" y="865" width="36" height="36"/>
	<rect x="3564" y="865" width="36" height="36"/>
	<rect x="3420" y="865" width="36" height="36"/>
	<rect x="3348" y="865" width="36" height="36"/>
	<rect x="3276" y="865" width="36" height="36"/>
	<rect x="3204" y="865" width="36" height="36"/>
	<rect x="3132" y="865" width="36" height="36"/>
	<rect x="3060" y="865" width="36" height="36"/>
	<rect x="2988" y="865" width="36" height="36"/>
	<rect x="2916" y="865" width="36" height="36"/>
	<rect x="2844" y="865" width="36" height="36"/>
	<rect x="2772" y="865" width="36" height="36"/>
	<rect x="2700" y="865" width="36" height="36"/>
	<rect x="2628" y="865" width="36" height="36"/>
	<rect x="2556" y="865" width="36" height="36"/>
	<rect x="2484" y="865" width="36" height="36"/>
	<rect x="2412" y="865" width="36" height="36"/>
	<rect x="2268" y="865" width="36" height="36"/>
	<rect x="2124" y="865" width="36" height="36"/>
	<rect x="1980" y="865" width="36" height="36"/>
	<rect x="1836" y="865" width="36" height="36"/>
	<rect x="1692" y="865" width="36" height="36"/>
	<rect x="1548" y="865" width="36" height="36"/>
	<rect x="1404" y="865" width="36" height="36"/>
	<rect x="1332" y="865" width="36" height="36"/>
	<rect x="1260" y="865" width="36" height="36"/>
	<rect x="1188" y="865" width="36" height="36"/>
	<rect x="1116" y="865" width="36" height="36"/>
	<rect x="1044" y="865" width="36" height="36"/>
	<rect x="972" y="865" width="36" height="36"/>
	<rect x="900" y="865" width="36" height="36"/>
	<rect x="828" y="865" width="36" height="36"/>
	<rect x="756" y="865" width="36" height="36"/>
	<rect x="684" y="865" width="36" height="36"/>
	<rect x="612" y="865" width="36" height="36"/>
	<rect x="540" y="865" width="36" height="36"/>
	<rect x="468" y="865" width="36" height="36"/>
	<rect x="396" y="865" width="36" height="36"/>
	<rect x="324" y="865" width="36" height="36"/>
	<rect x="252" y="865" width="36" height="36"/>
	<rect x="108" y="865" width="36" height="36"/>
	<rect x="4608" y="829" width="36" height="36"/>
	<rect x="4536" y="829" width="36" height="36"/>
	<rect x="4464" y="829" width="36" height="36"/>
	<rect x="4392" y="829" width="36" height="36"/>
	<rect x="4320" y="829" width="36" height="36"/>
	<rect x="4248" y="829" width="36" height="36"/>
	<rect x="4176" y="829" width="36" height="36"/>
	<rect x="4104" y="829" width="36" height="36"/>
	<rect x="4032" y="829" width="36" height="36"/>
	<rect x="3960" y="829" width="36" height="36"/>
	<rect x="3888" y="829" width="36" height="36"/>
	<rect x="3816" y="829" width="36" height="36"/>
	<rect x="3744" y="829" width="36" height="36"/>
	<rect x="3672" y="829" width="36" height="36"/>
	<rect x="3600" y="829" width="36" height="36"/>
	<rect x="3528" y="829" width="36" height="36"/>
	<rect x="3456" y="829" width="36" height="36"/>
	<rect x="3384" y="829" width="36" height="36"/>
	<rect x="3312" y="829" width="36" height="36"/>
	<rect x="3240" y="829" width="36" height="36"/>
	<rect x="3168" y="829" width="36" height="36"/>
	<rect x="3096" y="829" width="36" height="36"/>
	<rect x="3024" y="829" width="36" height="36"/>
	<rect x="2952" y="829" width="36" height="36"/>
	<rect x="2880" y="829" width="36" height="36"/>
	<rect x="2808" y="829" width="36" height="36"/>
	<rect x="2736" y="829" width="36" height="36"/>
	<rect x="2664" y="829" width="36" height="36"/>
	<rect x="2592" y="829" width="36" height="36"/>
	<rect x="2520" y="829" width="36" height="36"/>
	<rect x="2448" y="829" width="36" height="36"/>
	<rect x="2376" y="829" width="36" height="36"/>
	<rect x="2304" y="829" width="36" height="36"/>
	<rect x="2232" y="829" width="36" height="36"/>
	<rect x="2160" y="829" width="36" height="36"/>
	<rect x="2088" y="829" width="36" height="36"/>
	<rect x="2016" y="829" width="36" height="36"/>
	<rect x="1944" y="829" width="36" height="36"/>
	<rect x="1872" y="829" width="36" height="36"/>
	<rect x="1800" y="829" width="36" height="36"/>
	<rect x="1728" y="829" width="36" height="36"/>
	<rect x="1656" y="829" width="36" height="36"/>
	<rect x="1584" y="829" width="36" height="36"/>
	<rect x="1512" y="829" width="36" height="36"/>
	<rect x="1440" y="829" width="36" height="36"/>
	<rect x="1368" y="829" width="36" height="36"/>
	<rect x="1296" y="829" width="36" height="36"/>
	<rect x="1224" y="829" width="36" height="36"/>
	<rect x="1152" y="829" width="36" height="36"/>
	<rect x="1080" y="829" width="36" height="36"/>
	<rect x="1008" y="829" width="36" height="36"/>
	<rect x="936" y="829" width="36" height="36"/>
	<rect x="864" y="829" width="36" height="36"/>
	<rect x="792" y="829" width="36" height="36"/>
	<rect x="720" y="829" width="36" height="36"/>
	<rect x="648" y="829" width="36" height="36"/>
	<rect x="576" y="829" width="36" height="36"/>
	<rect x="504" y="829" width="36" height="36"/>
	<rect x="432" y="829" width="36" height="36"/>
	<rect x="360" y="829" width="36" height="36"/>
	<rect x="288" y="829" width="36" height="36"/>
	<rect x="216" y="829" width="36" height="36"/>
	<rect x="144" y="829" width="36" height="36"/>
	<rect x="72" y="829" width="36" height="36"/>
	<rect x="4572" y="793" width="36" height="36"/>
	<rect x="4500" y="793" width="36" height="36"/>
	<rect x="4428" y="793" width="36" height="36"/>
	<rect x="4356" y="793" width="36" height="36"/>
	<rect x="4284" y="793" width="36" height="36"/>
	<rect x="4212" y="793" width="36" height="36"/>
	<rect x="4140" y="793" width="36" height="36"/>
	<rect x="4068" y="793" width="36" height="36"/>
	<rect x="3996" y="793" width="36" height="36"/>
	<rect x="3924" y="793" width="36" height="36"/>
	<rect x="3852" y="793" width="36" height="36"/>
	<rect x="3780" y="793" width="36" height="36"/>
	<rect x="3708" y="793" width="36" height="36"/>
	<rect x="3636" y="793" width="36" height="36"/>
	<rect x="3564" y="793" width="36" height="36"/>
	<rect x="3492" y="793" width="36" height="36"/>
	<rect x="3420" y="793" width="36" height="36"/>
	<rect x="3348" y="793" width="36" height="36"/>
	<rect x="3276" y="793" width="36" height="36"/>
	<rect x="3204" y="793" width="36" height="36"/>
	<rect x="3132" y="793" width="36" height="36"/>
	<rect x="3060" y="793" width="36" height="36"/>
	<rect x="2988" y="793" width="36" height="36"/>
	<rect x="2916" y="793" width="36" height="36"/>
	<rect x="2844" y="793" width="36" height="36"/>
	<rect x="2772" y="793" width="36" height="36"/>
	<rect x="2700" y="793" width="36" height="36"/>
	<rect x="2628" y="793" width="36" height="36"/>
	<rect x="2556" y="793" width="36" height="36"/>
	<rect x="2484" y="793" width="36" height="36"/>
	<rect x="2412" y="793" width="36" height="36"/>
	<rect x="2340" y="793" width="36" height="36"/>
	<rect x="2268" y="793" width="36" height="36"/>
	<rect x="2196" y="793" width="36" height="36"/>
	<rect x="2124" y="793" width="36" height="36"/>
	<rect x="2052" y="793" width="36" height="36"/>
	<rect x="1980" y="793" width="36" height="36"/>
	<rect x="1908" y="793" width="36" height="36"/>
	<rect x="1836" y="793" width="36" height="36"/>
	<rect x="1764" y="793" width="36" height="36"/>
	<rect x="1692" y="793" width="36" height="36"/>
	<rect x="1620" y="793" width="36" height="36"/>
	<rect x="1548" y="793" width="36" height="36"/>
	<rect x="1476" y="793" width="36" height="36"/>
	<rect x="1404" y="793" width="36" height="36"/>
	<rect x="1332" y="793" width="36" height="36"/>
	<rect x="1260" y="793" width="36" height="36"/>
	<rect x="1188" y="793" width="36" height="36"/>
	<rect x="1116" y="793" width="36" height="36"/>
	<rect x="1044" y="793" width="36" height="36"/>
	<rect x="972" y="793" width="36" height="36"/>
	<rect x="900" y="793" width="36" height="36"/>
	<rect x="828" y="793" width="36" height="36"/>
	<rect x="756" y="793" width="36" height="36"/>
	<rect x="684" y="793" width="36" height="36"/>
	<rect x="612" y="793" width="36" height="36"/>
	<rect x="540" y="793" width="36" height="36"/>
	<rect x="468" y="793" width="36" height="36"/>
	<rect x="396" y="793" width="36" height="36"/>
	<rect x="324" y="793" width="36" height="36"/>
	<rect x="252" y="793" width="36" height="36"/>
	<rect x="180" y="793" width="36" height="36"/>
	<rect x="108" y="793" width="36" height="36"/>
	<rect x="36" y="793" width="36" height="36"/>
	<rect x="4608" y="757" width="36" height="36"/>
	<rect x="4536" y="757" width="36" height="36"/>
	<rect x="4464" y="757" width="36" height="36"/>
	<rect x="4392" y="757" width="36" height="36"/>
	<rect x="4320" y="757" width="36" height="36"/>
	<rect x="4248" y="757" width="36" height="36"/>
	<rect x="4176" y="757" width="36" height="36"/>
	<rect x="4104" y="757" width="36" height="36"/>
	<rect x="4032" y="757" width="36" height="36"/>
	<rect x="3960" y="757" width="36" height="36"/>
	<rect x="3888" y="757" width="36" height="36"/>
	<rect x="3816" y="757" width="36" height="36"/>
	<rect x="3744" y="757" width="36" height="36"/>
	<rect x="3672" y="757" width="36" height="36"/>
	<rect x="3600" y="757" width="36" height="36"/>
	<rect x="3528" y="757" width="36" height="36"/>
	<rect x="3456" y="757" width="36" height="36"/>
	<rect x="3384" y="757" width="36" height="36"/>
	<rect x="3312" y="757" width="36" height="36"/>
	<rect x="3240" y="757" width="36" height="36"/>
	<rect x="3168" y="757" width="36" height="36"/>
	<rect x="3096" y="757" width="36" height="36"/>
	<rect x="3024" y="757" width="36" height="36"/>
	<rect x="2952" y="757" width="36" height="36"/>
	<rect x="2880" y="757" width="36" height="36"/>
	<rect x="2808" y="757" width="36" height="36"/>
	<rect x="2736" y="757" width="36" height="36"/>
	<rect x="2664" y="757" width="36" height="36"/>
	<rect x="2592" y="757" width="36" height="36"/>
	<rect x="2520" y="757" width="36" height="36"/>
	<rect x="2448" y="757" width="36" height="36"/>
	<rect x="2376" y="757" width="36" height="36"/>
	<rect x="2304" y="757" width="36" height="36"/>
	<rect x="2232" y="757" width="36" height="36"/>
	<rect x="2160" y="757" width="36" height="36"/>
	<rect x="2088" y="757" width="36" height="36"/>
	<rect x="2016" y="757" width="36" height="36"/>
	<rect x="1944" y="757" width="36" height="36"/>
	<rect x="1872" y="757" width="36" height="36"/>
	<rect x="1800" y="757" width="36" height="36"/>
	<rect x="1728" y="757" width="36" height="36"/>
	<rect x="1656" y="757" width="36" height="36"/>
	<rect x="1584" y="757" width="36" height="36"/>
	<rect x="1512" y="757" width="36" height="36"/>
	<rect x="1440" y="757" width="36" height="36"/>
	<rect x="1368" y="757" width="36" height="36"/>
	<rect x="1296" y="757" width="36" height="36"/>
	<rect x="1224" y="757" width="36" height="36"/>
	<rect x="1152" y="757" width="36" height="36"/>
	<rect x="1080" y="757" width="36" height="36"/>
	<rect x="1008" y="757" width="36" height="36"/>
	<rect x="936" y="757" width="36" height="36"/>
	<rect x="864" y="757" width="36" height="36"/>
	<rect x="792" y="757" width="36" height="36"/>
	<rect x="720" y="757" width="36" height="36"/>
	<rect x="648" y="757" width="36" height="36"/>
	<rect x="576" y="757" width="36" height="36"/>
	<rect x="504" y="757" width="36" height="36"/>
	<rect x="432" y="757" width="36" height="36"/>
	<rect x="360" y="757" width="36" height="36"/>
	<rect x="288" y="757" width="36" height="36"/>
	<rect x="216" y="757" width="36" height="36"/>
	<rect x="144" y="757" width="36" height="36"/>
	<rect x="72" y="757" width="36" height="36"/>
	<rect x="4572" y="721" width="36" height="36"/>
	<rect x="4428" y="721" width="36" height="36"/>
	<rect x="4284" y="721" width="36" height="36"/>
	<rect x="4140" y="721" width="36" height="36"/>
	<rect x="3996" y="721" width="36" height="36"/>
	<rect x="3852" y="721" width="36" height="36"/>
	<rect x="3708" y="721" width="36" height="36"/>
	<rect x="3564" y="721" width="36" height="36"/>
	<rect x="3420" y="721" width="36" height="36"/>
	<rect x="3276" y="721" width="36" height="36"/>
	<rect x="3132" y="721" width="36" height="36"/>
	<rect x="2700" y="721" width="36" height="36"/>
	<rect x="2556" y="721" width="36" height="36"/>
	<rect x="2412" y="721" width="36" height="36"/>
	<rect x="2268" y="721" width="36" height="36"/>
	<rect x="2124" y="721" width="36" height="36"/>
	<rect x="1980" y="721" width="36" height="36"/>
	<rect x="1836" y="721" width="36" height="36"/>
	<rect x="1692" y="721" width="36" height="36"/>
	<rect x="1548" y="721" width="36" height="36"/>
	<rect x="1404" y="721" width="36" height="36"/>
	<rect x="1260" y="721" width="36" height="36"/>
	<rect x="684" y="721" width="36" height="36"/>
	<rect x="540" y="721" width="36" height="36"/>
	<rect x="396" y="721" width="36" height="36"/>
	<rect x="252" y="721" width="36" height="36"/>
	<rect x="108" y="721" width="36" height="36"/>
	<rect x="4608" y="685" width="36" height="36"/>
	<polygon points="4500,721 4500,757 4536,757 4536,721 4572,721 4572,685 4536,685 4536,649 4500,649 4500,685 4464,685 4464,721 	
		"/>
	<polygon points="4356,721 4356,757 4392,757 4392,721 4428,721 4428,685 4392,685 4392,649 4356,649 4356,685 4320,685 4320,721 	
		"/>
	<polygon points="4068,721 4068,757 4104,757 4104,721 4140,721 4140,685 4104,685 4104,649 4068,649 4068,685 4032,685 4032,721 	
		"/>
	<polygon points="3744,685 3744,721 3780,721 3780,757 3816,757 3816,721 3852,721 3852,685 3816,685 3816,649 3780,649 3780,685 	
		"/>
	<polygon points="3636,721 3636,757 3672,757 3672,721 3708,721 3708,685 3672,685 3672,649 3636,649 3636,685 3600,685 3600,721 	
		"/>
	<polygon points="3492,721 3492,757 3528,757 3528,721 3564,721 3564,685 3528,685 3528,649 3492,649 3492,685 3456,685 3456,721 	
		"/>
	<polygon points="3348,721 3348,757 3384,757 3384,721 3420,721 3420,685 3384,685 3384,649 3348,649 3348,685 3312,685 3312,721 	
		"/>
	<polygon points="3204,721 3204,757 3240,757 3240,721 3276,721 3276,685 3240,685 3240,649 3204,649 3204,685 3168,685 3168,721 	
		"/>
	<polygon points="2628,721 2628,757 2664,757 2664,721 2700,721 2700,685 2664,685 2664,649 2628,649 2628,685 2592,685 2592,721 	
		"/>
	<polygon points="2484,721 2484,757 2520,757 2520,721 2556,721 2556,685 2520,685 2520,649 2484,649 2484,685 2448,685 2448,721 	
		"/>
	<polygon points="2340,721 2340,757 2376,757 2376,721 2412,721 2412,685 2376,685 2376,649 2340,649 2340,685 2304,685 2304,721 	
		"/>
	<polygon points="1872,685 1872,721 1908,721 1908,757 1944,757 1944,721 1980,721 1980,685 1944,685 1944,649 1908,649 1908,685 	
		"/>
	<polygon points="1764,721 1764,757 1800,757 1800,721 1836,721 1836,685 1800,685 1800,649 1764,649 1764,685 1728,685 1728,721 	
		"/>
	<polygon points="1620,721 1620,757 1656,757 1656,721 1692,721 1692,685 1656,685 1656,649 1620,649 1620,685 1584,685 1584,721 	
		"/>
	<polygon points="1476,721 1476,757 1512,757 1512,721 1548,721 1548,685 1512,685 1512,649 1476,649 1476,685 1440,685 1440,721 	
		"/>
	<polygon points="1332,721 1332,757 1368,757 1368,721 1404,721 1404,685 1368,685 1368,649 1332,649 1332,685 1296,685 1296,721 	
		"/>
	<polygon points="612,721 612,757 648,757 648,721 684,721 684,685 648,685 648,649 612,649 612,685 576,685 576,721 	"/>
	<polygon points="468,721 468,757 504,757 504,721 540,721 540,685 504,685 504,649 468,649 468,685 432,685 432,721 	"/>
	<polygon points="324,721 324,757 360,757 360,721 396,721 396,685 360,685 360,649 324,649 324,685 288,685 288,721 	"/>
	<polygon points="108,721 108,685 72,685 72,649 36,649 36,685 36,721 36,757 72,757 72,721 	"/>
	<polygon points="4212,685 4176,685 4176,721 4212,721 4212,757 4248,757 4248,721 4284,721 4284,685 4248,685 4248,649 4212,649 	
		"/>
	<polygon points="3924,685 3888,685 3888,721 3924,721 3924,757 3960,757 3960,721 3996,721 3996,685 3960,685 3960,649 3924,649 	
		"/>
	<rect x="3852" y="649" width="36" height="36"/>
	<rect x="3708" y="649" width="36" height="36"/>
	<polygon points="2196,685 2160,685 2160,721 2196,721 2196,757 2232,757 2232,721 2268,721 2268,685 2232,685 2232,649 2196,649 	
		"/>
	<polygon points="2052,685 2016,685 2016,721 2052,721 2052,757 2088,757 2088,721 2124,721 2124,685 2088,685 2088,649 2052,649 	
		"/>
	<rect x="1980" y="649" width="36" height="36"/>
	<rect x="1836" y="649" width="36" height="36"/>
	<polygon points="180,685 144,685 144,721 180,721 180,757 216,757 216,721 252,721 252,685 216,685 216,649 180,649 	"/>
	<polygon points="108,685 144,685 144,649 180,649 180,613 144,613 144,577 180,577 180,541 144,541 144,505 108,505 108,541 
		72,541 72,577 108,577 108,613 72,613 72,649 108,649 	"/>
	<rect x="3888" y="613" width="36" height="36"/>
	<rect x="3816" y="613" width="36" height="36"/>
	<rect x="3744" y="613" width="36" height="36"/>
	<rect x="3672" y="613" width="36" height="36"/>
	<rect x="2016" y="613" width="36" height="36"/>
	<rect x="1944" y="613" width="36" height="36"/>
	<rect x="1872" y="613" width="36" height="36"/>
	<rect x="1800" y="613" width="36" height="36"/>
	<rect x="4212" y="577" width="36" height="36"/>
	<rect x="4068" y="577" width="36" height="36"/>
	<rect x="3924" y="577" width="36" height="36"/>
	<rect x="3780" y="577" width="36" height="36"/>
	<rect x="3636" y="577" width="36" height="36"/>
	<rect x="3492" y="577" width="36" height="36"/>
	<rect x="2196" y="577" width="36" height="36"/>
	<rect x="2052" y="577" width="36" height="36"/>
	<rect x="1908" y="577" width="36" height="36"/>
	<rect x="1764" y="577" width="36" height="36"/>
	<rect x="1620" y="577" width="36" height="36"/>
	<rect x="180" y="577" width="36" height="36"/>
	<rect x="36" y="577" width="36" height="36"/>
	<polygon points="4140,577 4140,613 4104,613 4104,649 4140,649 4140,685 4176,685 4176,649 4212,649 4212,613 4176,613 4176,577 
		4212,577 4212,541 4176,541 4176,505 4140,505 4140,541 4104,541 4104,577 	"/>
	<polygon points="3996,577 3996,613 3960,613 3960,649 3996,649 3996,685 4032,685 4032,649 4068,649 4068,613 4032,613 4032,577 
		4068,577 4068,541 4032,541 4032,505 3996,505 3996,541 3960,541 3960,577 	"/>
	<polygon points="3852,577 3852,613 3888,613 3888,577 3924,577 3924,541 3888,541 3888,505 3852,505 3852,541 3816,541 3816,577 	
		"/>
	<polygon points="3708,577 3708,613 3744,613 3744,577 3780,577 3780,541 3744,541 3744,505 3708,505 3708,541 3672,541 3672,577 	
		"/>
	<polygon points="3564,577 3564,613 3528,613 3528,649 3564,649 3564,685 3600,685 3600,649 3636,649 3636,613 3600,613 3600,577 
		3636,577 3636,541 3600,541 3600,505 3564,505 3564,541 3528,541 3528,577 	"/>
	<polygon points="2124,577 2124,613 2088,613 2088,649 2124,649 2124,685 2160,685 2160,649 2196,649 2196,613 2160,613 2160,577 
		2196,577 2196,541 2160,541 2160,505 2124,505 2124,541 2088,541 2088,577 	"/>
	<polygon points="1980,577 1980,613 2016,613 2016,577 2052,577 2052,541 2016,541 2016,505 1980,505 1980,541 1944,541 1944,577 	
		"/>
	<polygon points="1836,577 1836,613 1872,613 1872,577 1908,577 1908,541 1872,541 1872,505 1836,505 1836,541 1800,541 1800,577 	
		"/>
	<polygon points="1692,577 1692,613 1656,613 1656,649 1692,649 1692,685 1728,685 1728,649 1764,649 1764,613 1728,613 1728,577 
		1764,577 1764,541 1728,541 1728,505 1692,505 1692,541 1656,541 1656,577 	"/>
	<path d="M4608,36h-36h-36h-36h-36h-36h-36h-36h-36h-36h-36h-36h-36h-36h-36h-36h-36h-36h-36h-36h-36h-36h-36h-36h-36h-36h-36h-36
		h-36h-36h-36h-36h-36h-36h-36h-36h-36h-36h-36h-36h-36h-36h-36h-36h-36h-36h-36h-36h-36h-36h-36h-36h-36h-36h-36h-36h-36h-36h-36
		h-36h-36h-36h-36h-36h-36h-36h-36h-36h-36h-36h-36h-36h-36h-36h-36h-36h-36h-36h-36h-36h-36h-36h-36h-36h-36h-36h-36h-36h-36h-36
		h-36h-36h-36h-36h-36h-36h-36h-36h-36h-36h-36h-36h-36h-36h-36h-36h-36h-36h-36h-36h-36h-36h-36h-36h-36h-36h-36h-36h-36h-36h-36
		h-36h-36h-36h-36h-36H72H36v36v36v36v36v37v36v36v36v36v36v36v36v36v36h36v-36h36v-36H72v-36h36v36h36v-36h36v36h-36v36h36v36h36
		v-36h36v-36h-36v-36h36v36h36v-36h36v36h-36v36h36v36h-36v-36h-36v36h-36v36h36v36h-36v36h36v36h36v-36h36v-36h-36v-36h36v36h36
		v-36h36v36h-36v36h36v36h36v-36h36v-36h-36v-36h36v36h36v-36h36v36h-36v36h36v36h36v-36h36v-36h-36v-36h36v36h36v-36h36v36h-36v36
		h36v36h36v-36h36v-36h-36v-36h36v36h36v-36h36v36h-36v36h36v36h-36v-36h-36v36h-36v36h36v36h36v-36h36v36h36v-36h36v36h36v-36h36
		v36h36v-36h36v36h36v-36h36v36h36v-36h36v36h36v-36h36v-36h-36v-36h-36v36h-36v-36h36v-36h-36v-36h36v36h36v-36h36v36h-36v36h36v36
		h36v-36h36v-36h-36v-36h36v36h36v-36h36v36h-36v36h36v36h36v-36h36v-36h-36v-36h36v36h36v-36h36v36h-36v36h36v36h36v-36h36v-36h-36
		v-36h36v-36h-36v-36h-36v36h-36v-36h36v-36h-36v-36h36v36h36v-36h36v36h-36v36h36v36h36v-36h36v-36h-36v-36h36v36h36v-36h36v36h-36
		v36h36v36h36v-36h36v-36h-36v-36h36v36h36v-36h36v36h-36v36h36v36h36v-36h36v-36h-36v-36h36v36h36v-36h36v36h-36v36h36v36h36v-36
		h36v-36h-36v-36h36v36h36v-36h36v36h-36v36h36v36h36v-36h36v-36h-36v-36h36v36h36v-36h36v36h-36v36h36v36h-36v-36h-36v36h-36v36h36
		v36h-36v36h36v36h36v-36h36v-36h-36v-36h36v36h36v-36h36v36h-36v36h36v36h36v-36h36v-36h-36v-36h36v36h36v-36h36v36h-36v36h36v36
		h36v-36h36v-36h-36v-36h36v36h36v-36h36v36h-36v36h36v36h36v-36h36v-36h-36v-36h36v36h36v-36h36v36h-36v36h36v36h-36v-36h-36v36
		h-36v36h36v36h36v-36h36v36h36v-36h36v36h36v-36h36v36h36v-36h36v36h36v-36h36v-36h-36v-36h-36v36h-36v-36h36v-36h-36v-36h36v36h36
		v-36h36v36h-36v36h36v36h36v-36h36v-36h-36v-36h36v36h36v-36h36v36h-36v36h36v36h36v-36h36v-36h-36v-36h36v36h36v-36h36v36h-36v36
		h36v36h36v-36h36v-36h-36v-36h36v-36h-36v-36h-36v36h-36v-36h36v-36h-36v-36h36v36h36v-36h36v36h-36v36h36v36h36v-36h36v-36h-36
		v-36h36v36h36v-36h36v36h-36v36h36v36h36v-36h36v-36h-36v-36h36v36h36v-36h36v36h-36v36h36v36h36v-36h36v-36h-36v-36h36v36h36v-36
		h36v36h-36v36h36v36h36v-36h36v-36h-36v-36h36v36h36v-36h36v36h-36v36h36v36h36v-36h36v-36h-36v-36h36v36h36v-36h36v36h-36v36h36
		v36h36v-36h36v-36h-36v-36h36v36h36v-36h36v36h-36v36h36v36h-36v-36h-36v36h-36v36h36v36h-36v36h36v36h36v-36h36v-36h-36v-36h36v36
		h36v-36h36v36h-36v36h36v36h36v-36h36v-36h-36v-36h36v36h36v-36h36v36h-36v36h36v36h36v-36h36v-36h-36v-36h36v-36h-36v-36h36v-36
		h-36v-36h36v-36v-36v-36h-36v-36h36v-36v-36v-37v-36v-36V72V36H4608z M4572,397h-36v-36h36V397z M4500,469h-36v-36h36V469z
		 M3276,469h-36v-36h36V469z M2988,541h-36v-36h36V541z M1404,469h-36v-36h36V469z M1116,541h-36v-36h36V541z M144,325v-36h36v36
		H144z M4500,325h-36v-36h36V325z M2916,469h-36v-36h36V469z M1044,469h-36v-36h36V469z M4320,217h36v36h-36V217z M4284,180h-36v-36
		h36V180z M4140,180h-36v-36h36V180z M3996,180h-36v-36h36V180z M3852,180h-36v-36h36V180z M3708,180h-36v-36h36V180z M3564,180h-36
		v-36h36V180z M3420,180h-36v-36h36V180z M3276,180h-36v-36h36V180z M2448,325v-36h36v36H2448z M2304,217h36v36h-36V217z M2592,325
		v-36h36v36H2592z M2736,325v-36h36v36H2736z M2880,325v-36h36v36H2880z M3024,325v-36h36v36H3024z M2412,180h-36v-36h36V180z
		 M2268,180h-36v-36h36V180z M2124,180h-36v-36h36V180z M1980,180h-36v-36h36V180z M1836,180h-36v-36h36V180z M1692,180h-36v-36h36
		V180z M1548,180h-36v-36h36V180z M432,325v-36h36v36H432z M288,217h36v36h-36V217z M864,325v-36h36v36H864z M576,325v-36h36v36H576
		z M720,325v-36h36v36H720z M936,361h36v36h-36V361z M1008,325v-36h36v36H1008z M1152,325v-36h36v36H1152z M396,180h-36v-36h36V180z
		 M252,180h-36v-36h36V180z M288,289h36v36h-36V289z M504,361h36v36h-36V361z M648,361h36v36h-36V361z M792,361h36v36h-36V361z
		 M864,433h36v36h-36V433z M936,433h36v36h-36V433z M1080,361h36v36h-36V361z M1224,361h36v36h-36V361z M1296,325v-36h36v36H1296z
		 M1584,217h36v36h-36V217z M1728,217h36v36h-36V217z M1872,217h36v36h-36V217z M2016,217h36v36h-36V217z M2160,217h36v36h-36V217z
		 M2304,289h36v36h-36V289z M2520,361h36v36h-36V361z M2664,361h36v36h-36V361z M2808,361h36v36h-36V361z M2952,361h36v36h-36V361z
		 M3096,361h36v36h-36V361z M3168,325v-36h36v36H3168z M3312,217h36v36h-36V217z M3456,217h36v36h-36V217z M3600,217h36v36h-36V217z
		 M3744,217h36v36h-36V217z M3888,217h36v36h-36V217z M4032,217h36v36h-36V217z M4176,217h36v36h-36V217z M4320,289h36v36h-36V289z
		 M180,217v36h-36v-36H180z M360,361h36v36h-36V361z M432,433h36v36h-36V433z M504,433h36v36h-36V433z M576,433h36v36h-36V433z
		 M648,433h36v36h-36V433z M720,433h36v36h-36V433z M792,433h36v36h-36V433z M864,505h36v36h-36V505z M936,505h36v36h-36V505z
		 M1008,505h36v36h-36V505z M1080,469v-36h36v36H1080z M1152,433h36v36h-36V433z M1224,433h36v36h-36V433z M1296,433h36v36h-36V433z
		 M1368,397v-36h36v36H1368z M1440,325v-36h36v36H1440z M1584,325v-36h36v36H1584z M1656,289h36v36h-36V289z M1728,289h36v36h-36
		V289z M1800,289h36v36h-36V289z M1872,289h36v36h-36V289z M1944,289h36v36h-36V289z M2016,289h36v36h-36V289z M2088,289h36v36h-36
		V289z M2160,325v-36h36v36H2160z M2376,361h36v36h-36V361z M2448,433h36v36h-36V433z M2520,433h36v36h-36V433z M2592,433h36v36h-36
		V433z M2664,433h36v36h-36V433z M2736,433h36v36h-36V433z M2808,433h36v36h-36V433z M2880,505h36v36h-36V505z M2952,469v-36h36v36
		H2952z M3024,433h36v36h-36V433z M3096,433h36v36h-36V433z M3168,433h36v36h-36V433z M3240,397v-36h36v36H3240z M3312,325v-36h36
		v36H3312z M3456,325v-36h36v36H3456z M3528,289h36v36h-36V289z M3600,289h36v36h-36V289z M3672,289h36v36h-36V289z M3744,289h36v36
		h-36V289z M3816,289h36v36h-36V289z M3888,289h36v36h-36V289z M3960,289h36v36h-36V289z M4032,289h36v36h-36V289z M4104,289h36v36
		h-36V289z M4176,325v-36h36v36H4176z M4392,361h36v36h-36V361z M72,144h36v36H72V144z M72,289h36v36H72V289z M72,397v-36h36v36H72z
		 M216,397v-36h36v36H216z M360,433h36v36h-36V433z M360,541v-36h36v36H360z M432,541v-36h36v36H432z M504,541v-36h36v36H504z
		 M576,541v-36h36v36H576z M648,541v-36h36v36H648z M720,541v-36h36v36H720z M792,541v-36h36v36H792z M936,685v-36h-36v36h-36v-36
		h36v-36h-36v-36h36v36h36v-36h36v36h-36v36h36v36H936z M1116,613h-36v36h36v36h-36v-36h-36v36h-36v-36h36v-36h-36v-36h36v36h36v-36
		h36V613z M1152,541v-36h36v36H1152z M1224,541v-36h36v36H1224z M1296,541v-36h36v36H1296z M1368,541v-36h36v36H1368z M1476,541h-36
		v-36h36V541z M1476,469h-36v-36h36V469z M1512,397v-36h36v36H1512z M1656,397v-36h36v36H1656z M1728,397v-36h36v36H1728z M1800,397
		v-36h36v36H1800z M1872,397v-36h36v36H1872z M1944,397v-36h36v36H1944z M2016,397v-36h36v36H2016z M2088,397v-36h36v36H2088z
		 M2232,397v-36h36v36H2232z M2376,433h36v36h-36V433z M2376,541v-36h36v36H2376z M2448,541v-36h36v36H2448z M2520,541v-36h36v36
		H2520z M2592,541v-36h36v36H2592z M2664,541v-36h36v36H2664z M2736,541v-36h36v36H2736z M2808,541v-36h36v36H2808z M2988,613h-36
		v36h36v36h-36v-36h-36v36h-36v-36h36v-36h-36v-36h36v36h36v-36h36V613z M3024,541v-36h36v36H3024z M3096,541v-36h36v36H3096z
		 M3168,541v-36h36v36H3168z M3240,541v-36h36v36H3240z M3348,541h-36v-36h36V541z M3348,469h-36v-36h36V469z M3384,397v-36h36v36
		H3384z M3528,397v-36h36v36H3528z M3600,397v-36h36v36H3600z M3672,397v-36h36v36H3672z M3744,397v-36h36v36H3744z M3816,397v-36
		h36v36H3816z M3888,397v-36h36v36H3888z M3960,397v-36h36v36H3960z M4032,397v-36h36v36H4032z M4104,397v-36h36v36H4104z M4248,397
		v-36h36v36H4248z M4392,433h36v36h-36V433z M4392,541v-36h36v36H4392z M4464,541v-36h36v36H4464z M4572,541h-36v-36h36V541z
		 M4572,469h-36v-36h36V469z"/>
</g>
</svg>
