<?xml version="1.0" encoding="utf-8"?>
<!-- Generator: Adobe Illustrator 15.0.0, SVG Export Plug-In . SVG Version: 6.00 Build 0)  -->
<!DOCTYPE svg PUBLIC "-//W3C//DTD SVG 1.1//EN" "http://www.w3.org/Graphics/SVG/1.1/DTD/svg11.dtd">
<svg version="1.1" id="Layer_1" xmlns="http://www.w3.org/2000/svg" xmlns:xlink="http://www.w3.org/1999/xlink" x="0px" y="0px"
	 width="62.042px" height="14.099px" viewBox="0 0 62.042 14.099" enable-background="new 0 0 62.042 14.099" xml:space="preserve">
<path fill="#FFFFFF" d="M17.119,11.271c0.213,0.069,0.398,0.203,0.531,0.379c0.197-0.262,0.512-0.432,0.865-0.432h0.086
	c-0.322-0.115-0.6-0.323-0.805-0.59C17.68,10.932,17.43,11.169,17.119,11.271z"/>
<path fill="#FFFFFF" d="M17.432,9.238c-0.055,0.016-0.111,0.025-0.172,0.025h-0.008c0.063,0.029,0.123,0.066,0.18,0.109V9.238z"/>
<path fill="#FFFFFF" d="M55.563,7.597v1.057c0,0.336-0.272,0.609-0.607,0.609h-2.091v2.826c0,0.715-0.58,1.295-1.294,1.295
	c-0.715,0-1.296-0.58-1.296-1.295V9.263h-2.09c-0.162,0-0.313-0.065-0.423-0.172c-0.108,0.106-0.257,0.172-0.421,0.172h-0.01
	c0.365,0.174,0.619,0.547,0.619,0.978c0,0.48-0.314,0.89-0.749,1.03c0.435,0.142,0.749,0.55,0.749,1.031
	c0,0.598-0.486,1.082-1.084,1.082h-5.132c-0.483,0-0.92-0.193-1.237-0.505c-0.046,0.07-0.1,0.136-0.159,0.195
	c-0.205,0.2-0.475,0.31-0.759,0.31h-5.134c-0.639,0-1.197-0.339-1.51-0.847c-0.184,0.495-0.659,0.847-1.215,0.847h-1.274
	c-0.714,0-1.296-0.58-1.296-1.295v-0.883h-0.258v0.883c0,0.715-0.58,1.295-1.295,1.295h-1.274c-0.538,0-1-0.329-1.196-0.797
	c-0.316,0.48-0.861,0.797-1.479,0.797l-5.133,0.002c-0.354,0-0.668-0.17-0.865-0.434c-0.197,0.264-0.512,0.434-0.863,0.434h-5.135
	c-0.627,0-1.178-0.327-1.492-0.818c-0.189,0.479-0.658,0.818-1.205,0.818H7.502c-0.715,0-1.297-0.582-1.297-1.297V9.031H5.951v3.109
	c0,0.686-0.559,1.246-1.244,1.246c-0.016,0-0.031-0.002-0.045-0.002c-0.328-0.012-0.633-0.15-0.857-0.394
	c-0.223-0.237-0.344-0.547-0.344-0.871V9.031H3.203v3.109c0,0.686-0.559,1.246-1.246,1.246c-0.014,0-0.029-0.002-0.045-0.002
	c-0.326-0.012-0.631-0.15-0.857-0.394c-0.221-0.237-0.342-0.547-0.342-0.871V7.168c0-0.975,0.793-1.77,1.77-1.77h6
	c0.691,0,1.295,0.4,1.584,0.982c0.291-0.582,0.893-0.982,1.584-0.982h4.447c0.668,0,1.252,0.371,1.553,0.919
	c0.301-0.548,0.885-0.919,1.553-0.919h4.445c0.617,0,1.162,0.317,1.479,0.798c0.196-0.469,0.658-0.798,1.196-0.798h1.274
	c0.715,0,1.295,0.581,1.295,1.295v2.58h0.258v-2.58c0-0.714,0.582-1.295,1.296-1.295h1.274c0.48,0,0.901,0.264,1.125,0.654
	c0.223-0.39,0.645-0.654,1.125-0.654h1.959c0.336,0,0.609,0.273,0.609,0.608v5.212h3.021c0.138,0,0.274,0.027,0.401,0.076V7.168
	c0-0.975,0.796-1.77,1.771-1.77h4.446c0.692,0,1.292,0.399,1.583,0.979c0.291-0.58,0.892-0.979,1.584-0.979h1.209l0.056-0.317
	h-1.265c-0.394,0-0.777,0.111-1.11,0.321C48.059,5.514,47.9,5.651,47.762,5.81c-0.136-0.158-0.293-0.295-0.471-0.407
	c-0.333-0.21-0.718-0.321-1.112-0.321h-4.446c-0.152,0-0.3,0.019-0.443,0.05c-0.026,0.006-0.051,0.017-0.077,0.024
	c-0.118,0.031-0.233,0.068-0.343,0.119c-0.014,0.006-0.026,0.015-0.04,0.021c-0.121,0.059-0.234,0.127-0.341,0.208
	c-0.002,0.001-0.004,0.003-0.007,0.005c-0.114,0.087-0.218,0.185-0.313,0.292c0,0-0.001,0-0.001,0.001
	c-0.071,0.063-0.137,0.128-0.199,0.2c-0.438,0.383-0.72,0.938-0.72,1.563v3.338h-2.393V6.006c0-0.51-0.415-0.925-0.927-0.925h-1.959
	c-0.289,0-0.572,0.078-0.822,0.225c-0.109,0.066-0.213,0.145-0.303,0.234c-0.092-0.089-0.195-0.168-0.305-0.234
	c-0.249-0.146-0.533-0.225-0.821-0.225h-1.274c-0.139,0-0.272,0.022-0.4,0.056c-0.059,0.015-0.112,0.04-0.168,0.061
	c-0.061,0.024-0.12,0.047-0.176,0.078c-0.073,0.039-0.14,0.083-0.206,0.132c-0.027,0.02-0.052,0.041-0.078,0.063
	c-0.075,0.063-0.146,0.13-0.208,0.206l0,0c-0.072,0.062-0.138,0.125-0.198,0.198c-0.007,0.006-0.015,0.012-0.022,0.018
	c-0.139-0.241-0.335-0.444-0.575-0.585c-0.025-0.016-0.055-0.022-0.082-0.036c-0.097-0.05-0.194-0.1-0.301-0.13
	c-0.138-0.04-0.283-0.061-0.434-0.061h-1.274c-0.323,0-0.637,0.096-0.904,0.278c-0.124,0.085-0.235,0.185-0.331,0.298
	c-0.384-0.367-0.896-0.576-1.439-0.576h-4.445c-0.6,0-1.162,0.257-1.553,0.692c-0.391-0.435-0.953-0.692-1.553-0.692H11.65
	c-0.395,0-0.777,0.111-1.111,0.322c-0.18,0.113-0.336,0.25-0.473,0.408C9.932,5.653,9.771,5.516,9.594,5.403
	C9.262,5.192,8.877,5.081,8.482,5.081h-6c-0.152,0-0.3,0.019-0.443,0.05c-0.026,0.006-0.05,0.017-0.076,0.023
	c-0.119,0.031-0.235,0.069-0.345,0.12C1.605,5.28,1.593,5.288,1.581,5.294c-0.123,0.059-0.237,0.129-0.345,0.21
	c0,0-0.001,0.001-0.002,0.001C1.117,5.594,1.012,5.693,0.916,5.804C0.845,5.865,0.78,5.93,0.719,6C0.282,6.383,0,6.939,0,7.564
	v4.951c0,0.406,0.15,0.791,0.428,1.088c0.283,0.305,0.666,0.48,1.076,0.494c0.021,0,0.039,0.002,0.057,0.002
	c0.487,0,0.914-0.23,1.201-0.58C2.834,13.458,2.9,13.393,2.96,13.32c0.003-0.002,0.005-0.004,0.008-0.007
	c0.06,0.103,0.125,0.201,0.207,0.29c0.285,0.305,0.668,0.48,1.078,0.494c0.02,0,0.037,0.002,0.057,0.002
	c0.486,0,0.914-0.232,1.202-0.584c0.071-0.061,0.138-0.124,0.198-0.197c0.005-0.004,0.01-0.008,0.015-0.012
	c0.28,0.472,0.79,0.793,1.38,0.793h1.455c0.328,0,0.645-0.1,0.916-0.287c0.123-0.086,0.234-0.188,0.328-0.303
	c0.131,0.127,0.277,0.236,0.434,0.324c0.311,0.174,0.662,0.266,1.018,0.266h5.133c0.221,0,0.439-0.053,0.635-0.154
	c0.082-0.039,0.16-0.09,0.23-0.146c0.072,0.057,0.15,0.107,0.23,0.146c0.195,0.102,0.416,0.154,0.635,0.154l5.135-0.002
	c0.543,0,1.055-0.209,1.438-0.576c0.096,0.113,0.206,0.215,0.331,0.299c0.268,0.182,0.58,0.277,0.904,0.277h1.273
	c0.502,0,0.942-0.236,1.237-0.596c0.071-0.063,0.138-0.126,0.198-0.199c0.007-0.006,0.014-0.011,0.021-0.017
	c0.279,0.483,0.796,0.812,1.393,0.812h1.273c0.335,0,0.658-0.102,0.932-0.297c0.124-0.088,0.233-0.191,0.327-0.307
	c0.129,0.127,0.275,0.238,0.432,0.328c0.314,0.182,0.674,0.275,1.036,0.275h5.134c0.358,0,0.697-0.133,0.955-0.377
	c0.35,0.244,0.765,0.377,1.198,0.377h5.133c0.438,0,0.822-0.204,1.079-0.518c0.073-0.06,0.14-0.126,0.199-0.199l0,0
	c0.077-0.063,0.146-0.133,0.207-0.209c0.004-0.004,0.007-0.008,0.01-0.012c0.056-0.07,0.104-0.146,0.145-0.227
	c0.007-0.013,0.014-0.024,0.02-0.037c0.035-0.073,0.063-0.15,0.084-0.23c0.006-0.021,0.014-0.039,0.019-0.059
	c0.021-0.1,0.035-0.2,0.035-0.305c0-0.302-0.095-0.59-0.274-0.832c-0.054-0.072-0.113-0.139-0.179-0.199
	c0.065-0.061,0.125-0.127,0.179-0.199c0.18-0.242,0.274-0.529,0.274-0.831c0-0.091-0.016-0.178-0.033-0.265h1.328v2.51
	c0,0.889,0.723,1.611,1.612,1.611c0.495,0,0.933-0.229,1.229-0.58c0.071-0.061,0.137-0.127,0.197-0.197
	c0.088-0.074,0.167-0.155,0.237-0.246c0.002-0.002,0.004-0.004,0.005-0.006c0.063-0.082,0.119-0.17,0.166-0.264
	c0.006-0.014,0.014-0.025,0.02-0.037c0.04-0.086,0.07-0.175,0.095-0.268c0.006-0.021,0.015-0.041,0.02-0.063
	c0.025-0.112,0.04-0.228,0.04-0.348V9.976h1.376c0.307,0,0.566-0.16,0.735-0.391c0.077-0.057,0.142-0.121,0.198-0.198
	c0.001-0.001,0.001-0.001,0.001-0.001c0.08-0.059,0.146-0.128,0.204-0.209c0.029-0.039,0.059-0.077,0.081-0.12
	c0.017-0.034,0.029-0.067,0.042-0.104c0.035-0.094,0.061-0.192,0.061-0.3V7.597H55.563z"/>
<path fill="#FFFFFF" d="M24.25,9.263c0.307,0.111,0.576,0.305,0.778,0.556V9.222c-0.067,0.025-0.142,0.041-0.218,0.041H24.25z"/>
<path fill="#FFFFFF" d="M16.098,5.793H11.65c-0.758,0-1.373,0.615-1.373,1.375v4.447c0,0.76,0.615,1.375,1.375,1.375h5.135
	c0.379,0,0.686-0.309,0.686-0.688c0-0.38-0.307-0.688-0.686-0.688h-4.498c-0.117,0-0.213-0.096-0.213-0.213v-0.261
	c0-0.118,0.096-0.213,0.213-0.213h4.498c0.379,0,0.686-0.308,0.686-0.688s-0.307-0.688-0.686-0.688h-4.498
	c-0.117,0-0.213-0.095-0.213-0.214V9.08c0-0.117,0.096-0.213,0.213-0.213h4.971c0.117,0,0.213-0.096,0.213-0.213V7.168
	C17.473,6.409,16.857,5.793,16.098,5.793z"/>
<path fill="#FFFFFF" d="M23.648,5.793h-4.445c-0.76,0-1.375,0.615-1.375,1.375v2.385c0,0.76,0.615,1.375,1.375,1.375h3.809
	c0.117,0,0.213,0.095,0.213,0.213v0.261c0,0.117-0.096,0.213-0.213,0.213h-4.496c-0.379,0-0.688,0.308-0.688,0.688
	c0,0.379,0.309,0.688,0.688,0.688h5.133c0.76,0,1.375-0.615,1.375-1.375v-0.687c0-0.759-0.615-1.375-1.375-1.375h-4.232
	c-0.119,0-0.213-0.095-0.213-0.214V9.08c0-0.117,0.094-0.213,0.213-0.213h5.395c0.117,0,0.213-0.096,0.213-0.213V7.168
	C25.023,6.409,24.408,5.793,23.648,5.793z"/>
<path fill="#FFFFFF" d="M8.482,5.793h-6c-0.76,0-1.375,0.615-1.375,1.375v4.952c0,0.461,0.359,0.853,0.82,0.869
	c0.482,0.017,0.879-0.37,0.879-0.849V8.847c0-0.117,0.096-0.213,0.213-0.213h0.623c0.119,0,0.215,0.096,0.215,0.213v3.272
	c0,0.461,0.357,0.853,0.818,0.869c0.482,0.017,0.879-0.37,0.879-0.849V8.847c0-0.117,0.096-0.213,0.215-0.213h0.623
	c0.104,0,0.189,0.074,0.209,0.172v3.283c0,0.497,0.402,0.9,0.9,0.9h1.453c0.498,0,0.9-0.403,0.9-0.9V7.168
	C9.855,6.409,9.24,5.793,8.482,5.793z"/>
<path fill="#FFFFFF" d="M54.768,6.874l0.098-0.556c-0.037-0.047-0.075-0.095-0.118-0.137c-0.183,0.282-0.439,0.511-0.761,0.617
	c-0.251,0.48-0.754,0.798-1.319,0.798h-0.645H50.89l0.129-0.723h-0.725l0.191-1.08h-1.14c-0.76,0-1.375,0.615-1.375,1.375v1.486
	c0,0.117,0.097,0.213,0.214,0.213h2.271c0.117,0,0.214,0.096,0.214,0.213v3.01c0,0.497,0.403,0.9,0.9,0.9
	c0.496,0,0.898-0.403,0.898-0.9V9.08c0-0.117,0.097-0.213,0.215-0.213h2.271c0.116,0,0.212-0.096,0.212-0.213V7.168
	c0-0.102-0.013-0.2-0.033-0.295H54.768z"/>
<path fill="#FFFFFF" d="M31.721,5.793h-1.274c-0.497,0-0.899,0.404-0.899,0.9v2.763c0,0.117-0.096,0.213-0.213,0.213h-0.623
	c-0.119,0-0.215-0.096-0.215-0.213V6.693c0-0.496-0.402-0.9-0.898-0.9h-1.274c-0.496,0-0.899,0.404-0.899,0.9v5.396
	c0,0.497,0.403,0.9,0.899,0.9h1.274c0.496,0,0.898-0.403,0.898-0.9v-1.064c0-0.117,0.096-0.214,0.215-0.214h0.623
	c0.117,0,0.213,0.097,0.213,0.214v1.064c0,0.497,0.402,0.9,0.899,0.9h1.274c0.496,0,0.899-0.403,0.899-0.9V6.693
	C32.62,6.197,32.217,5.793,31.721,5.793z"/>
<path fill="#FFFFFF" d="M46.179,5.793h-4.446c-0.76,0-1.373,0.615-1.373,1.375v4.447c0,0.76,0.613,1.375,1.375,1.375h5.132
	c0.38,0,0.688-0.309,0.688-0.688c0-0.38-0.309-0.688-0.688-0.688h-4.496c-0.117,0-0.213-0.096-0.213-0.213v-0.261
	c0-0.118,0.096-0.213,0.213-0.213h4.496c0.38,0,0.688-0.308,0.688-0.688s-0.309-0.688-0.688-0.688h-4.496
	c-0.117,0-0.213-0.095-0.213-0.214V9.08c0-0.117,0.096-0.213,0.213-0.213h4.971c0.118,0,0.214-0.096,0.214-0.213V7.168
	C47.555,6.409,46.939,5.793,46.179,5.793z"/>
<path fill="#FFFFFF" d="M39.56,11.615h-3.203c-0.118,0-0.213-0.096-0.213-0.213V6.006c0-0.117-0.096-0.213-0.214-0.213h-1.959
	c-0.496,0-0.898,0.404-0.898,0.9v4.921c0,0.76,0.615,1.375,1.373,1.375h5.134c0.374,0,0.681-0.301,0.688-0.676
	C40.274,11.929,39.946,11.615,39.56,11.615z"/>
<path fill="#FFFFFF" d="M61.317,0.724L61.446,0H60h-2.088c-0.074,0-0.147,0.004-0.219,0.014L57.695,0h-1.448h-0.577
	c-0.331,0-0.645,0.088-0.913,0.242L54.801,0h-1.448h-0.644c-0.854,0-1.579,0.609-1.726,1.449l-0.753,4.263L49.98,7.138h0.722
	l-0.126,0.724h1.447h0.645c0.629,0,1.192-0.334,1.502-0.849c0.119-0.047,0.232-0.108,0.339-0.18l-0.055,0.306h0.725L55.05,7.861
	h1.446h2.813c0.854,0,1.582-0.611,1.73-1.454l0.113-0.64l0.25-1.425h-0.24c0.194-0.231,0.333-0.515,0.387-0.831l0.24-1.363
	l0.252-1.426H61.317z M61.531,2.104L61.29,3.467c-0.094,0.534-0.463,0.959-0.946,1.141h0.744l-0.196,1.115l-0.111,0.64
	c-0.127,0.716-0.745,1.234-1.471,1.234h-2.813h-1.133l0.129-0.723h-0.725l0.149-0.848c-0.022,0.01-0.045,0.018-0.07,0.027
	c-0.176,0.353-0.486,0.622-0.86,0.746c-0.251,0.48-0.754,0.798-1.319,0.798h-0.645H50.89l0.129-0.723h-0.725l0.197-1.115
	l0.749-4.263c0.128-0.713,0.745-1.231,1.469-1.231h0.644h1.131l-0.122,0.704c0.28-0.429,0.766-0.704,1.308-0.704h0.577h1.134
	l-0.019,0.104c0.172-0.067,0.357-0.104,0.55-0.104H60h1.133l-0.129,0.724h0.724L61.531,2.104z"/>
<path fill="#FFFFFF" d="M60,1.215h-2.088c-0.265,0-0.488,0.188-0.534,0.45L57.354,1.79c-0.015,0.086-0.09,0.148-0.176,0.148H57.06
	c-0.265,0-0.489,0.189-0.535,0.451l-0.239,1.363l0.239-1.363c0.046-0.261,0.271-0.451,0.535-0.451h0.118
	c0.086,0,0.161-0.062,0.176-0.148l0.023-0.125c0.046-0.261,0.27-0.45,0.534-0.45H60 M60,1.215l-0.092,0.513
	c-0.002,0.012-0.004,0.022-0.004,0.033c0-0.011,0.002-0.021,0.004-0.033L60,1.215 M60,1.215l-0.092,0.513
	c-0.002,0.012-0.004,0.022-0.004,0.033c0.002,0.054,0.026,0.093,0.044,0.113c0.018,0.023,0.063,0.064,0.137,0.064h0.51l-0.24,1.363
	c-0.046,0.261-0.271,0.45-0.535,0.45h-0.117c-0.087,0-0.161,0.062-0.177,0.148l-0.021,0.125c-0.047,0.261-0.272,0.451-0.538,0.451
	h-0.638l0.114-0.64c0.046-0.26,0.27-0.45,0.535-0.45h0.117c0.087,0,0.161-0.063,0.177-0.148l0.125-0.724
	c0.003-0.011,0.005-0.022,0.005-0.033c0-0.055-0.024-0.093-0.041-0.113c-0.021-0.024-0.065-0.064-0.139-0.064h-1.436
	c-0.087,0-0.161,0.063-0.176,0.148l-0.152,0.85c-0.045,0.261-0.27,0.45-0.535,0.45h-0.637l0.239-1.363
	c0.046-0.261,0.271-0.451,0.535-0.451h0.118c0.086,0,0.161-0.062,0.176-0.148l0.023-0.125c0.046-0.261,0.27-0.45,0.534-0.45H60
	 M56.247,1.215h-0.577c-0.301,0-0.556,0.213-0.606,0.507l-0.385,2.183c-0.021,0.118-0.123,0.205-0.245,0.205
	c-0.299,0-0.553,0.213-0.605,0.507l-0.037,0.216h-0.271c-0.263,0-0.486,0.188-0.532,0.446l-0.021,0.135
	c-0.016,0.083-0.087,0.144-0.173,0.144c-0.069,0-0.112-0.039-0.132-0.062c-0.018-0.02-0.042-0.058-0.042-0.11
	c0,0.053,0.024,0.09,0.042,0.11c0.02,0.023,0.063,0.062,0.132,0.062c0.086,0,0.157-0.06,0.173-0.144l0.021-0.135
	c0.046-0.258,0.27-0.446,0.532-0.446h0.271l0.037-0.216c0.053-0.294,0.307-0.507,0.605-0.507c0.122,0,0.225-0.087,0.245-0.205
	l0.385-2.183c0.051-0.294,0.306-0.507,0.606-0.507H56.247 M56.247,1.215l-0.483,2.753c-0.054,0.294-0.308,0.508-0.605,0.508
	c-0.121,0-0.226,0.086-0.246,0.205L54.91,4.692C54.858,4.986,54.604,5.2,54.306,5.2h-0.21l-0.049,0.278
	c-0.046,0.258-0.269,0.445-0.53,0.445h-0.125c-0.084,0-0.156,0.061-0.171,0.144l-0.022,0.135c-0.048,0.258-0.271,0.445-0.531,0.445
	h-0.645h0.645c0.26,0,0.483-0.187,0.531-0.445l0.022-0.135c0.015-0.083,0.087-0.144,0.171-0.144h0.125
	c0.262,0,0.484-0.187,0.53-0.445L54.096,5.2h0.21c0.298,0,0.552-0.214,0.604-0.508l0.002-0.011c0.021-0.119,0.125-0.205,0.246-0.205
	c0.298,0,0.552-0.213,0.605-0.508L56.247,1.215 M56.247,1.215l-0.483,2.753c-0.054,0.294-0.308,0.508-0.605,0.508
	c-0.121,0-0.226,0.086-0.246,0.205L54.91,4.692C54.858,4.986,54.604,5.2,54.306,5.2h-0.21l-0.049,0.278
	c-0.046,0.258-0.269,0.445-0.53,0.445h-0.125c-0.084,0-0.156,0.061-0.171,0.144l-0.022,0.135c-0.048,0.258-0.271,0.445-0.531,0.445
	h-0.645l0.091-0.52c0.002-0.011,0.003-0.021,0.003-0.031c0-0.053-0.023-0.091-0.041-0.11c-0.019-0.023-0.063-0.063-0.132-0.063
	h-0.517l0.75-4.264c0.046-0.258,0.27-0.444,0.532-0.444h0.644l-0.729,4.139c-0.002,0.011-0.005,0.021-0.005,0.032
	c0,0.053,0.024,0.09,0.042,0.11c0.02,0.023,0.063,0.062,0.132,0.062c0.086,0,0.157-0.06,0.173-0.144l0.021-0.135
	c0.046-0.258,0.27-0.446,0.532-0.446h0.271l0.037-0.216c0.053-0.294,0.307-0.507,0.605-0.507c0.122,0,0.225-0.087,0.245-0.205
	l0.385-2.183c0.051-0.294,0.306-0.507,0.606-0.507H56.247 M53.353,1.215h-0.644c-0.263,0-0.486,0.187-0.532,0.444l-0.75,4.264
	l0.75-4.264c0.046-0.258,0.27-0.444,0.532-0.444H53.353 M53.353,1.215l-0.729,4.139c-0.002,0.011-0.005,0.021-0.005,0.032
	c0-0.01,0.003-0.021,0.005-0.032L53.353,1.215 M59.904,1.761c0.002,0.054,0.026,0.093,0.044,0.113
	c0.018,0.023,0.063,0.064,0.137,0.064h0.51h-0.51c-0.073,0-0.119-0.041-0.137-0.064C59.93,1.854,59.906,1.815,59.904,1.761
	 M60.594,1.938l-0.24,1.363c-0.046,0.261-0.271,0.45-0.535,0.45h-0.117c-0.087,0-0.161,0.062-0.177,0.148l-0.021,0.125
	c-0.047,0.261-0.272,0.451-0.538,0.451h-0.638h0.638c0.266,0,0.491-0.189,0.538-0.451L59.525,3.9
	c0.016-0.086,0.09-0.148,0.177-0.148h0.117c0.264,0,0.489-0.189,0.535-0.45L60.594,1.938 M59.221,2.304
	c0.073,0,0.117,0.04,0.139,0.064c0.017,0.02,0.041,0.059,0.041,0.113c0-0.055-0.024-0.093-0.041-0.113
	C59.338,2.344,59.294,2.304,59.221,2.304h-1.436c-0.087,0-0.161,0.063-0.176,0.148l-0.152,0.85c-0.045,0.261-0.27,0.45-0.535,0.45
	h-0.637h0.637c0.266,0,0.49-0.189,0.535-0.45l0.152-0.85c0.015-0.085,0.089-0.148,0.176-0.148H59.221 M59.401,2.481
	c0,0.011-0.002,0.021-0.005,0.033l-0.125,0.724c-0.016,0.085-0.09,0.148-0.177,0.148h-0.117c-0.266,0-0.489,0.189-0.535,0.45
	l-0.114,0.64l0.114-0.64c0.046-0.26,0.27-0.45,0.535-0.45h0.117c0.087,0,0.161-0.063,0.177-0.148l0.125-0.724
	C59.399,2.503,59.401,2.492,59.401,2.481 M58.041,4.11h-0.64c-0.265,0-0.49,0.189-0.536,0.449l-0.021,0.126
	c-0.016,0.086-0.089,0.148-0.176,0.148H56.55c-0.265,0-0.489,0.19-0.535,0.45l-0.114,0.64l0.114-0.64
	c0.046-0.26,0.271-0.45,0.535-0.45h0.117c0.087,0,0.16-0.062,0.176-0.148l0.021-0.126c0.046-0.26,0.271-0.449,0.536-0.449H58.041
	 M58.041,4.11l-0.114,0.64c-0.045,0.26-0.272,0.45-0.534,0.45h-0.117c-0.087,0-0.161,0.062-0.176,0.147
	c-0.003,0.012-0.004,0.022-0.004,0.032c0-0.01,0.001-0.021,0.004-0.032C57.114,5.261,57.188,5.2,57.275,5.2h0.117
	c0.262,0,0.489-0.19,0.534-0.45L58.041,4.11 M58.041,4.11l-0.114,0.64c-0.045,0.26-0.272,0.45-0.534,0.45h-0.117
	c-0.087,0-0.161,0.062-0.176,0.147c-0.003,0.012-0.004,0.022-0.004,0.032c0,0.054,0.023,0.094,0.041,0.114
	c0.021,0.023,0.066,0.063,0.139,0.063h2.682l-0.113,0.64c-0.045,0.261-0.272,0.45-0.534,0.45h-2.813l0.091-0.514
	c0.002-0.011,0.005-0.022,0.005-0.033c0-0.055-0.027-0.093-0.044-0.113c-0.02-0.024-0.064-0.064-0.137-0.064h-0.511l0.114-0.64
	c0.046-0.26,0.271-0.45,0.535-0.45h0.117c0.087,0,0.16-0.062,0.176-0.148l0.021-0.126c0.046-0.26,0.271-0.449,0.536-0.449H58.041
	 M57.095,5.379c0,0.054,0.023,0.094,0.041,0.114c0.021,0.023,0.066,0.063,0.139,0.063h2.682h-2.682c-0.072,0-0.118-0.04-0.139-0.063
	C57.119,5.473,57.095,5.434,57.095,5.379 M59.957,5.557l-0.113,0.64c-0.045,0.261-0.272,0.45-0.534,0.45h-2.813h2.813
	c0.262,0,0.489-0.189,0.534-0.45L59.957,5.557 M51.944,5.923c0.069,0,0.113,0.039,0.132,0.063c0.018,0.019,0.041,0.057,0.041,0.11
	c0-0.053-0.023-0.091-0.041-0.11C52.057,5.962,52.013,5.923,51.944,5.923h-0.517H51.944 M56.412,5.923
	c0.072,0,0.117,0.04,0.137,0.064c0.017,0.02,0.044,0.059,0.044,0.113c0-0.055-0.027-0.093-0.044-0.113
	C56.529,5.963,56.484,5.923,56.412,5.923h-0.511H56.412 M52.117,6.096c0,0.01-0.001,0.02-0.003,0.031l-0.091,0.52l0.091-0.52
	C52.116,6.116,52.117,6.105,52.117,6.096 M56.592,6.101c0,0.011-0.003,0.021-0.005,0.033l-0.091,0.514l0.091-0.514
	C56.589,6.122,56.592,6.111,56.592,6.101 M60.564,0.739H60h-2.088c-0.458,0-0.852,0.302-0.978,0.732
	c-0.091,0.011-0.18,0.034-0.262,0.069l0.044-0.243l0.099-0.558h-0.568h-0.577c-0.53,0-0.982,0.379-1.074,0.9L54.24,3.651
	c-0.386,0.069-0.706,0.342-0.833,0.713c-0.045,0.004-0.09,0.013-0.131,0.023l0.544-3.091l0.099-0.558h-0.565h-0.644
	c-0.493,0-0.913,0.353-0.998,0.838l-0.754,4.264l-0.097,0.557h0.566h0.156l-0.027,0.166l-0.099,0.558h0.565h0.645
	c0.455,0,0.848-0.302,0.974-0.731c0.404-0.048,0.743-0.337,0.852-0.733c0.393-0.067,0.717-0.344,0.846-0.722
	c0.131-0.022,0.258-0.069,0.369-0.135c-0.078,0.117-0.135,0.252-0.162,0.4l-0.111,0.64l-0.099,0.557h0.565h0.157L56.03,6.564
	l-0.098,0.558h0.564h2.813c0.495,0,0.916-0.354,1.001-0.843l0.115-0.639l0.098-0.558h-0.566h-1.64
	c0.019-0.043,0.036-0.087,0.049-0.132h0.6c0.458,0,0.854-0.302,0.98-0.731c0.438-0.056,0.797-0.389,0.875-0.834l0.241-1.364
	l0.098-0.558h-0.565h-0.156l0.027-0.166L60.564,0.739L60.564,0.739z M58.033,2.779h0.837l-0.027,0.14
	c-0.395,0.052-0.727,0.332-0.841,0.715h-0.154c0.037-0.078,0.063-0.162,0.079-0.25L58.033,2.779L58.033,2.779z M56.184,4.227h0.102
	h0.19c-0.021,0.044-0.038,0.091-0.053,0.139c-0.135,0.017-0.263,0.061-0.377,0.125C56.103,4.411,56.15,4.322,56.184,4.227
	L56.184,4.227z"/>
<g>
	<g>
		<g>
			<path fill="#FFFF46" d="M60.594,1.938h-0.51c-0.073,0-0.119-0.041-0.137-0.064c-0.018-0.021-0.042-0.059-0.044-0.113
				c0-0.011,0.002-0.021,0.004-0.033L60,1.215h-2.088c-0.265,0-0.488,0.188-0.534,0.45L57.354,1.79
				c-0.015,0.086-0.09,0.148-0.176,0.148H57.06c-0.265,0-0.489,0.189-0.535,0.451l-0.239,1.363h0.637c0.266,0,0.49-0.189,0.535-0.45
				l0.152-0.85c0.015-0.085,0.089-0.148,0.176-0.148h1.436c0.073,0,0.117,0.04,0.139,0.064c0.017,0.02,0.041,0.059,0.041,0.113
				c0,0.011-0.002,0.021-0.005,0.033l-0.125,0.724c-0.016,0.085-0.09,0.148-0.177,0.148h-0.117c-0.266,0-0.489,0.189-0.535,0.45
				l-0.114,0.64h0.638c0.266,0,0.491-0.189,0.538-0.451L59.525,3.9c0.016-0.086,0.09-0.148,0.177-0.148h0.117
				c0.264,0,0.489-0.189,0.535-0.45L60.594,1.938z"/>
		</g>
		<g>
			<path fill="#FFFF46" d="M56.247,1.215h-0.577c-0.301,0-0.556,0.213-0.606,0.507l-0.385,2.183
				c-0.021,0.118-0.123,0.205-0.245,0.205c-0.299,0-0.553,0.213-0.605,0.507l-0.037,0.216h-0.271c-0.263,0-0.486,0.188-0.532,0.446
				l-0.021,0.135c-0.016,0.083-0.087,0.144-0.173,0.144c-0.069,0-0.112-0.039-0.132-0.062c-0.018-0.02-0.042-0.058-0.042-0.11
				c0-0.01,0.003-0.021,0.005-0.032l0.729-4.139h-0.644c-0.263,0-0.486,0.187-0.532,0.444l-0.75,4.264h0.517
				c0.069,0,0.113,0.039,0.132,0.063c0.018,0.019,0.041,0.057,0.041,0.11c0,0.01-0.001,0.02-0.003,0.031l-0.091,0.52h0.645
				c0.26,0,0.483-0.187,0.531-0.445l0.022-0.135c0.015-0.083,0.087-0.144,0.171-0.144h0.125c0.262,0,0.484-0.187,0.53-0.445
				L54.096,5.2h0.21c0.298,0,0.552-0.214,0.604-0.508l0.002-0.011c0.021-0.119,0.125-0.205,0.246-0.205
				c0.298,0,0.552-0.213,0.605-0.508L56.247,1.215z"/>
		</g>
		<g>
			<path fill="#FFFF46" d="M57.136,5.494c-0.018-0.021-0.041-0.06-0.041-0.114c0-0.01,0.001-0.021,0.004-0.032
				C57.114,5.261,57.188,5.2,57.275,5.2h0.117c0.262,0,0.489-0.19,0.534-0.45l0.114-0.64h-0.64c-0.265,0-0.49,0.189-0.536,0.449
				l-0.021,0.126c-0.016,0.086-0.089,0.148-0.176,0.148H56.55c-0.265,0-0.489,0.19-0.535,0.45l-0.114,0.64h0.511
				c0.072,0,0.117,0.04,0.137,0.064c0.017,0.02,0.044,0.059,0.044,0.113c0,0.011-0.003,0.021-0.005,0.033l-0.091,0.514h2.813
				c0.262,0,0.489-0.189,0.534-0.45l0.113-0.64h-2.682C57.203,5.557,57.157,5.517,57.136,5.494z"/>
		</g>
		<g>
			<path fill="#FFFF46" d="M60.594,1.938h-0.51c-0.073,0-0.119-0.041-0.137-0.064c-0.018-0.021-0.042-0.059-0.044-0.113
				c0-0.011,0.002-0.021,0.004-0.033L60,1.215h-2.088c-0.265,0-0.488,0.188-0.534,0.45L57.354,1.79
				c-0.015,0.086-0.09,0.148-0.176,0.148H57.06c-0.265,0-0.489,0.189-0.535,0.451l-0.239,1.363h0.637c0.266,0,0.49-0.189,0.535-0.45
				l0.152-0.85c0.015-0.085,0.089-0.148,0.176-0.148h1.436c0.073,0,0.117,0.04,0.139,0.064c0.017,0.02,0.041,0.059,0.041,0.113
				c0,0.011-0.002,0.021-0.005,0.033l-0.125,0.724c-0.016,0.085-0.09,0.148-0.177,0.148h-0.117c-0.266,0-0.489,0.189-0.535,0.45
				l-0.114,0.64h0.638c0.266,0,0.491-0.189,0.538-0.451L59.525,3.9c0.016-0.086,0.09-0.148,0.177-0.148h0.117
				c0.264,0,0.489-0.189,0.535-0.45L60.594,1.938z"/>
		</g>
		<g>
			<path fill="#FFFF46" d="M56.247,1.215h-0.577c-0.301,0-0.556,0.213-0.606,0.507l-0.385,2.183
				c-0.021,0.118-0.123,0.205-0.245,0.205c-0.299,0-0.553,0.213-0.605,0.507l-0.037,0.216h-0.271c-0.263,0-0.486,0.188-0.532,0.446
				l-0.021,0.135c-0.016,0.083-0.087,0.144-0.173,0.144c-0.069,0-0.112-0.039-0.132-0.062c-0.018-0.02-0.042-0.058-0.042-0.11
				c0-0.01,0.003-0.021,0.005-0.032l0.729-4.139h-0.644c-0.263,0-0.486,0.187-0.532,0.444l-0.75,4.264h0.517
				c0.069,0,0.113,0.039,0.132,0.063c0.018,0.019,0.041,0.057,0.041,0.11c0,0.01-0.001,0.02-0.003,0.031l-0.091,0.52h0.645
				c0.26,0,0.483-0.187,0.531-0.445l0.022-0.135c0.015-0.083,0.087-0.144,0.171-0.144h0.125c0.262,0,0.484-0.187,0.53-0.445
				L54.096,5.2h0.21c0.298,0,0.552-0.214,0.604-0.508l0.002-0.011c0.021-0.119,0.125-0.205,0.246-0.205
				c0.298,0,0.552-0.213,0.605-0.508L56.247,1.215z"/>
		</g>
		<g>
			<path fill="#FFFF46" d="M57.136,5.494c-0.018-0.021-0.041-0.06-0.041-0.114c0-0.01,0.001-0.021,0.004-0.032
				C57.114,5.261,57.188,5.2,57.275,5.2h0.117c0.262,0,0.489-0.19,0.534-0.45l0.114-0.64h-0.64c-0.265,0-0.49,0.189-0.536,0.449
				l-0.021,0.126c-0.016,0.086-0.089,0.148-0.176,0.148H56.55c-0.265,0-0.489,0.19-0.535,0.45l-0.114,0.64h0.511
				c0.072,0,0.117,0.04,0.137,0.064c0.017,0.02,0.044,0.059,0.044,0.113c0,0.011-0.003,0.021-0.005,0.033l-0.091,0.514h2.813
				c0.262,0,0.489-0.189,0.534-0.45l0.113-0.64h-2.682C57.203,5.557,57.157,5.517,57.136,5.494z"/>
		</g>
		<g>
			<path fill="#FFFF46" d="M60.594,1.938h-0.51c-0.073,0-0.119-0.041-0.137-0.064c-0.018-0.021-0.042-0.059-0.044-0.113
				c0-0.011,0.002-0.021,0.004-0.033L60,1.215h-2.088c-0.265,0-0.488,0.188-0.534,0.45L57.354,1.79
				c-0.015,0.086-0.09,0.148-0.176,0.148H57.06c-0.265,0-0.489,0.189-0.535,0.451l-0.239,1.363h0.637c0.266,0,0.49-0.189,0.535-0.45
				l0.152-0.85c0.015-0.085,0.089-0.148,0.176-0.148h1.436c0.073,0,0.117,0.04,0.139,0.064c0.017,0.02,0.041,0.059,0.041,0.113
				c0,0.011-0.002,0.021-0.005,0.033l-0.125,0.724c-0.016,0.085-0.09,0.148-0.177,0.148h-0.117c-0.266,0-0.489,0.189-0.535,0.45
				l-0.114,0.64h0.638c0.266,0,0.491-0.189,0.538-0.451L59.525,3.9c0.016-0.086,0.09-0.148,0.177-0.148h0.117
				c0.264,0,0.489-0.189,0.535-0.45L60.594,1.938z"/>
		</g>
		<g>
			<path fill="#FFFF46" d="M56.247,1.215h-0.577c-0.301,0-0.556,0.213-0.606,0.507l-0.385,2.183
				c-0.021,0.118-0.123,0.205-0.245,0.205c-0.299,0-0.553,0.213-0.605,0.507l-0.037,0.216h-0.271c-0.263,0-0.486,0.188-0.532,0.446
				l-0.021,0.135c-0.016,0.083-0.087,0.144-0.173,0.144c-0.069,0-0.112-0.039-0.132-0.062c-0.018-0.02-0.042-0.058-0.042-0.11
				c0-0.01,0.003-0.021,0.005-0.032l0.729-4.139h-0.644c-0.263,0-0.486,0.187-0.532,0.444l-0.75,4.264h0.517
				c0.069,0,0.113,0.039,0.132,0.063c0.018,0.019,0.041,0.057,0.041,0.11c0,0.01-0.001,0.02-0.003,0.031l-0.091,0.52h0.645
				c0.26,0,0.483-0.187,0.531-0.445l0.022-0.135c0.015-0.083,0.087-0.144,0.171-0.144h0.125c0.262,0,0.484-0.187,0.53-0.445
				L54.096,5.2h0.21c0.298,0,0.552-0.214,0.604-0.508l0.002-0.011c0.021-0.119,0.125-0.205,0.246-0.205
				c0.298,0,0.552-0.213,0.605-0.508L56.247,1.215z"/>
		</g>
		<g>
			<path fill="#FFFF46" d="M57.136,5.494c-0.018-0.021-0.041-0.06-0.041-0.114c0-0.01,0.001-0.021,0.004-0.032
				C57.114,5.261,57.188,5.2,57.275,5.2h0.117c0.262,0,0.489-0.19,0.534-0.45l0.114-0.64h-0.64c-0.265,0-0.49,0.189-0.536,0.449
				l-0.021,0.126c-0.016,0.086-0.089,0.148-0.176,0.148H56.55c-0.265,0-0.489,0.19-0.535,0.45l-0.114,0.64h0.511
				c0.072,0,0.117,0.04,0.137,0.064c0.017,0.02,0.044,0.059,0.044,0.113c0,0.011-0.003,0.021-0.005,0.033l-0.091,0.514h2.813
				c0.262,0,0.489-0.189,0.534-0.45l0.113-0.64h-2.682C57.203,5.557,57.157,5.517,57.136,5.494z"/>
		</g>
	</g>
</g>
</svg>
