<?xml version="1.0" encoding="utf-8"?>
<!-- Generator: Adobe Illustrator 15.0.0, SVG Export Plug-In . SVG Version: 6.00 Build 0)  -->
<!DOCTYPE svg PUBLIC "-//W3C//DTD SVG 1.1//EN" "http://www.w3.org/Graphics/SVG/1.1/DTD/svg11.dtd">
<svg version="1.1" id="Layer_1" xmlns="http://www.w3.org/2000/svg" xmlns:xlink="http://www.w3.org/1999/xlink" x="0px" y="0px"
	 width="1000px" height="1000px" viewBox="0 0 1000 1000" enable-background="new 0 0 1000 1000" xml:space="preserve">
<g>
	<rect x="275.862" shape-rendering="crispEdges" width="34.483" height="34.483"/>
	<rect x="310.345" shape-rendering="crispEdges" width="34.482" height="34.483"/>
	<rect x="344.827" shape-rendering="crispEdges" width="34.483" height="34.483"/>
	<rect x="517.241" shape-rendering="crispEdges" width="34.483" height="34.483"/>
	<rect x="551.725" shape-rendering="crispEdges" width="34.482" height="34.483"/>
	<rect x="586.207" shape-rendering="crispEdges" width="34.483" height="34.483"/>
	<rect x="620.69" shape-rendering="crispEdges" width="34.482" height="34.483"/>
	<rect x="689.655" shape-rendering="crispEdges" width="34.483" height="34.483"/>
	<rect x="310.345" y="34.483" shape-rendering="crispEdges" width="34.482" height="34.482"/>
	<rect x="344.827" y="34.483" shape-rendering="crispEdges" width="34.483" height="34.482"/>
	<rect x="379.31" y="34.483" shape-rendering="crispEdges" width="34.483" height="34.482"/>
	<rect x="448.275" y="34.483" shape-rendering="crispEdges" width="34.483" height="34.482"/>
	<rect x="482.759" y="34.483" shape-rendering="crispEdges" width="34.482" height="34.482"/>
	<rect x="551.725" y="34.483" shape-rendering="crispEdges" width="34.482" height="34.482"/>
	<rect x="586.207" y="34.483" shape-rendering="crispEdges" width="34.483" height="34.482"/>
	<rect x="655.173" y="34.483" shape-rendering="crispEdges" width="34.482" height="34.482"/>
	<rect x="275.862" y="68.965" shape-rendering="crispEdges" width="34.483" height="34.483"/>
	<rect x="310.345" y="68.965" shape-rendering="crispEdges" width="34.482" height="34.483"/>
	<rect x="482.759" y="68.965" shape-rendering="crispEdges" width="34.482" height="34.483"/>
	<rect x="517.241" y="68.965" shape-rendering="crispEdges" width="34.483" height="34.483"/>
	<rect x="551.725" y="68.965" shape-rendering="crispEdges" width="34.482" height="34.483"/>
	<rect x="586.207" y="68.965" shape-rendering="crispEdges" width="34.483" height="34.483"/>
	<rect x="344.827" y="103.448" shape-rendering="crispEdges" width="34.483" height="34.483"/>
	<rect x="482.759" y="103.448" shape-rendering="crispEdges" width="34.482" height="34.483"/>
	<rect x="620.69" y="103.448" shape-rendering="crispEdges" width="34.482" height="34.483"/>
	<rect x="310.345" y="137.932" shape-rendering="crispEdges" width="34.482" height="34.482"/>
	<rect x="413.793" y="137.932" shape-rendering="crispEdges" width="34.482" height="34.482"/>
	<rect x="448.275" y="137.932" shape-rendering="crispEdges" width="34.483" height="34.482"/>
	<rect x="482.759" y="137.932" shape-rendering="crispEdges" width="34.482" height="34.482"/>
	<rect x="517.241" y="137.932" shape-rendering="crispEdges" width="34.483" height="34.482"/>
	<rect x="586.207" y="137.932" shape-rendering="crispEdges" width="34.483" height="34.482"/>
	<rect x="655.173" y="137.932" shape-rendering="crispEdges" width="34.482" height="34.482"/>
	<rect x="275.862" y="172.414" shape-rendering="crispEdges" width="34.483" height="34.483"/>
	<rect x="344.827" y="172.414" shape-rendering="crispEdges" width="34.483" height="34.483"/>
	<rect x="413.793" y="172.414" shape-rendering="crispEdges" width="34.482" height="34.483"/>
	<rect x="517.241" y="172.414" shape-rendering="crispEdges" width="34.483" height="34.483"/>
	<rect x="586.207" y="172.414" shape-rendering="crispEdges" width="34.483" height="34.483"/>
	<rect x="275.862" y="206.896" shape-rendering="crispEdges" width="34.483" height="34.483"/>
	<rect x="344.827" y="206.896" shape-rendering="crispEdges" width="34.483" height="34.483"/>
	<rect x="413.793" y="206.896" shape-rendering="crispEdges" width="34.482" height="34.483"/>
	<rect x="482.759" y="206.896" shape-rendering="crispEdges" width="34.482" height="34.483"/>
	<rect x="551.725" y="206.896" shape-rendering="crispEdges" width="34.482" height="34.483"/>
	<rect x="620.69" y="206.896" shape-rendering="crispEdges" width="34.482" height="34.483"/>
	<rect x="689.655" y="206.896" shape-rendering="crispEdges" width="34.483" height="34.483"/>
	<rect x="310.345" y="241.38" shape-rendering="crispEdges" width="34.482" height="34.482"/>
	<rect x="344.827" y="241.38" shape-rendering="crispEdges" width="34.483" height="34.482"/>
	<rect x="413.793" y="241.38" shape-rendering="crispEdges" width="34.482" height="34.482"/>
	<rect x="482.759" y="241.38" shape-rendering="crispEdges" width="34.482" height="34.482"/>
	<rect x="517.241" y="241.38" shape-rendering="crispEdges" width="34.483" height="34.482"/>
	<rect x="551.725" y="241.38" shape-rendering="crispEdges" width="34.482" height="34.482"/>
	<rect x="620.69" y="241.38" shape-rendering="crispEdges" width="34.482" height="34.482"/>
	<rect x="655.173" y="241.38" shape-rendering="crispEdges" width="34.482" height="34.482"/>
	<rect x="689.655" y="241.38" shape-rendering="crispEdges" width="34.483" height="34.482"/>
	<rect y="275.862" shape-rendering="crispEdges" width="34.482" height="34.483"/>
	<rect x="68.965" y="275.862" shape-rendering="crispEdges" width="34.483" height="34.483"/>
	<rect x="206.896" y="275.862" shape-rendering="crispEdges" width="34.482" height="34.483"/>
	<rect x="241.378" y="275.862" shape-rendering="crispEdges" width="34.483" height="34.483"/>
	<rect x="310.345" y="275.862" shape-rendering="crispEdges" width="34.482" height="34.483"/>
	<rect x="379.31" y="275.862" shape-rendering="crispEdges" width="34.483" height="34.483"/>
	<rect x="448.275" y="275.862" shape-rendering="crispEdges" width="34.483" height="34.483"/>
	<rect x="482.759" y="275.862" shape-rendering="crispEdges" width="34.482" height="34.483"/>
	<rect x="551.725" y="275.862" shape-rendering="crispEdges" width="34.482" height="34.483"/>
	<rect x="586.207" y="275.862" shape-rendering="crispEdges" width="34.483" height="34.483"/>
	<rect x="620.69" y="275.862" shape-rendering="crispEdges" width="34.482" height="34.483"/>
	<rect x="655.173" y="275.862" shape-rendering="crispEdges" width="34.482" height="34.483"/>
	<rect x="793.104" y="275.862" shape-rendering="crispEdges" width="34.483" height="34.483"/>
	<rect x="896.552" y="275.862" shape-rendering="crispEdges" width="34.483" height="34.483"/>
	<rect x="965.519" y="275.862" shape-rendering="crispEdges" width="34.481" height="34.483"/>
	<rect y="310.345" shape-rendering="crispEdges" width="34.482" height="34.482"/>
	<rect x="137.93" y="310.345" shape-rendering="crispEdges" width="34.483" height="34.482"/>
	<rect x="172.414" y="310.345" shape-rendering="crispEdges" width="34.483" height="34.482"/>
	<rect x="275.862" y="310.345" shape-rendering="crispEdges" width="34.483" height="34.482"/>
	<rect x="344.827" y="310.345" shape-rendering="crispEdges" width="34.483" height="34.482"/>
	<rect x="448.275" y="310.345" shape-rendering="crispEdges" width="34.483" height="34.482"/>
	<rect x="482.759" y="310.345" shape-rendering="crispEdges" width="34.482" height="34.482"/>
	<rect x="655.173" y="310.345" shape-rendering="crispEdges" width="34.482" height="34.482"/>
	<rect x="689.655" y="310.345" shape-rendering="crispEdges" width="34.483" height="34.482"/>
	<rect x="793.104" y="310.345" shape-rendering="crispEdges" width="34.483" height="34.482"/>
	<rect x="862.069" y="310.345" shape-rendering="crispEdges" width="34.482" height="34.482"/>
	<rect y="344.827" shape-rendering="crispEdges" width="34.482" height="34.483"/>
	<rect x="34.482" y="344.827" shape-rendering="crispEdges" width="34.483" height="34.483"/>
	<rect x="68.965" y="344.827" shape-rendering="crispEdges" width="34.483" height="34.483"/>
	<rect x="103.448" y="344.827" shape-rendering="crispEdges" width="34.482" height="34.483"/>
	<rect x="172.414" y="344.827" shape-rendering="crispEdges" width="34.483" height="34.483"/>
	<rect x="206.896" y="344.827" shape-rendering="crispEdges" width="34.482" height="34.483"/>
	<rect x="241.378" y="344.827" shape-rendering="crispEdges" width="34.483" height="34.483"/>
	<rect x="275.862" y="344.827" shape-rendering="crispEdges" width="34.483" height="34.483"/>
	<rect x="310.345" y="344.827" shape-rendering="crispEdges" width="34.482" height="34.483"/>
	<rect x="344.827" y="344.827" shape-rendering="crispEdges" width="34.483" height="34.483"/>
	<rect x="379.31" y="344.827" shape-rendering="crispEdges" width="34.483" height="34.483"/>
	<rect x="517.241" y="344.827" shape-rendering="crispEdges" width="34.483" height="34.483"/>
	<rect x="551.725" y="344.827" shape-rendering="crispEdges" width="34.482" height="34.483"/>
	<rect x="620.69" y="344.827" shape-rendering="crispEdges" width="34.482" height="34.483"/>
	<rect x="689.655" y="344.827" shape-rendering="crispEdges" width="34.483" height="34.483"/>
	<rect x="758.621" y="344.827" shape-rendering="crispEdges" width="34.482" height="34.483"/>
	<rect x="965.519" y="344.827" shape-rendering="crispEdges" width="34.481" height="34.483"/>
	<rect y="379.31" shape-rendering="crispEdges" width="34.482" height="34.483"/>
	<rect x="34.482" y="379.31" shape-rendering="crispEdges" width="34.483" height="34.483"/>
	<rect x="275.862" y="379.31" shape-rendering="crispEdges" width="34.483" height="34.483"/>
	<rect x="310.345" y="379.31" shape-rendering="crispEdges" width="34.482" height="34.483"/>
	<rect x="448.275" y="379.31" shape-rendering="crispEdges" width="34.483" height="34.483"/>
	<rect x="620.69" y="379.31" shape-rendering="crispEdges" width="34.482" height="34.483"/>
	<rect x="655.173" y="379.31" shape-rendering="crispEdges" width="34.482" height="34.483"/>
	<rect x="758.621" y="379.31" shape-rendering="crispEdges" width="34.482" height="34.483"/>
	<rect x="793.104" y="379.31" shape-rendering="crispEdges" width="34.483" height="34.483"/>
	<rect x="862.069" y="379.31" shape-rendering="crispEdges" width="34.482" height="34.483"/>
	<rect x="931.035" y="379.31" shape-rendering="crispEdges" width="34.483" height="34.483"/>
	<rect x="965.519" y="379.31" shape-rendering="crispEdges" width="34.481" height="34.483"/>
	<rect y="413.793" shape-rendering="crispEdges" width="34.482" height="34.482"/>
	<rect x="34.482" y="413.793" shape-rendering="crispEdges" width="34.483" height="34.482"/>
	<rect x="206.896" y="413.793" shape-rendering="crispEdges" width="34.482" height="34.482"/>
	<rect x="241.378" y="413.793" shape-rendering="crispEdges" width="34.483" height="34.482"/>
	<rect x="310.345" y="413.793" shape-rendering="crispEdges" width="34.482" height="34.482"/>
	<rect x="344.827" y="413.793" shape-rendering="crispEdges" width="34.483" height="34.482"/>
	<rect x="413.793" y="413.793" shape-rendering="crispEdges" width="34.482" height="34.482"/>
	<rect x="448.275" y="413.793" shape-rendering="crispEdges" width="34.483" height="34.482"/>
	<rect x="517.241" y="413.793" shape-rendering="crispEdges" width="34.483" height="34.482"/>
	<rect x="551.725" y="413.793" shape-rendering="crispEdges" width="34.482" height="34.482"/>
	<rect x="586.207" y="413.793" shape-rendering="crispEdges" width="34.483" height="34.482"/>
	<rect x="655.173" y="413.793" shape-rendering="crispEdges" width="34.482" height="34.482"/>
	<rect x="724.139" y="413.793" shape-rendering="crispEdges" width="34.482" height="34.482"/>
	<rect x="827.587" y="413.793" shape-rendering="crispEdges" width="34.482" height="34.482"/>
	<rect x="862.069" y="413.793" shape-rendering="crispEdges" width="34.482" height="34.482"/>
	<rect x="896.552" y="413.793" shape-rendering="crispEdges" width="34.483" height="34.482"/>
	<rect x="965.519" y="413.793" shape-rendering="crispEdges" width="34.481" height="34.482"/>
	<rect x="34.482" y="448.275" shape-rendering="crispEdges" width="34.483" height="34.483"/>
	<rect x="68.965" y="448.275" shape-rendering="crispEdges" width="34.483" height="34.483"/>
	<rect x="137.93" y="448.275" shape-rendering="crispEdges" width="34.483" height="34.483"/>
	<rect x="241.378" y="448.275" shape-rendering="crispEdges" width="34.483" height="34.483"/>
	<rect x="413.793" y="448.275" shape-rendering="crispEdges" width="34.482" height="34.483"/>
	<rect x="551.725" y="448.275" shape-rendering="crispEdges" width="34.482" height="34.483"/>
	<rect x="620.69" y="448.275" shape-rendering="crispEdges" width="34.482" height="34.483"/>
	<rect x="689.655" y="448.275" shape-rendering="crispEdges" width="34.483" height="34.483"/>
	<rect x="827.587" y="448.275" shape-rendering="crispEdges" width="34.482" height="34.483"/>
	<rect x="862.069" y="448.275" shape-rendering="crispEdges" width="34.482" height="34.483"/>
	<rect x="34.482" y="482.758" shape-rendering="crispEdges" width="34.483" height="34.483"/>
	<rect x="68.965" y="482.758" shape-rendering="crispEdges" width="34.483" height="34.483"/>
	<rect x="172.414" y="482.758" shape-rendering="crispEdges" width="34.483" height="34.483"/>
	<rect x="206.896" y="482.758" shape-rendering="crispEdges" width="34.482" height="34.483"/>
	<rect x="241.378" y="482.758" shape-rendering="crispEdges" width="34.483" height="34.483"/>
	<rect x="344.827" y="482.758" shape-rendering="crispEdges" width="34.483" height="34.483"/>
	<rect x="379.31" y="482.758" shape-rendering="crispEdges" width="34.483" height="34.483"/>
	<rect x="413.793" y="482.758" shape-rendering="crispEdges" width="34.482" height="34.483"/>
	<rect x="448.275" y="482.758" shape-rendering="crispEdges" width="34.483" height="34.483"/>
	<rect x="482.759" y="482.758" shape-rendering="crispEdges" width="34.482" height="34.483"/>
	<rect x="517.241" y="482.758" shape-rendering="crispEdges" width="34.483" height="34.483"/>
	<rect x="620.69" y="482.758" shape-rendering="crispEdges" width="34.482" height="34.483"/>
	<rect x="689.655" y="482.758" shape-rendering="crispEdges" width="34.483" height="34.483"/>
	<rect x="758.621" y="482.758" shape-rendering="crispEdges" width="34.482" height="34.483"/>
	<rect x="793.104" y="482.758" shape-rendering="crispEdges" width="34.483" height="34.483"/>
	<rect x="931.035" y="482.758" shape-rendering="crispEdges" width="34.483" height="34.483"/>
	<rect x="34.482" y="517.241" shape-rendering="crispEdges" width="34.483" height="34.483"/>
	<rect x="103.448" y="517.241" shape-rendering="crispEdges" width="34.482" height="34.483"/>
	<rect x="137.93" y="517.241" shape-rendering="crispEdges" width="34.483" height="34.483"/>
	<rect x="172.414" y="517.241" shape-rendering="crispEdges" width="34.483" height="34.483"/>
	<rect x="241.378" y="517.241" shape-rendering="crispEdges" width="34.483" height="34.483"/>
	<rect x="344.827" y="517.241" shape-rendering="crispEdges" width="34.483" height="34.483"/>
	<rect x="379.31" y="517.241" shape-rendering="crispEdges" width="34.483" height="34.483"/>
	<rect x="482.759" y="517.241" shape-rendering="crispEdges" width="34.482" height="34.483"/>
	<rect x="517.241" y="517.241" shape-rendering="crispEdges" width="34.483" height="34.483"/>
	<rect x="551.725" y="517.241" shape-rendering="crispEdges" width="34.482" height="34.483"/>
	<rect x="586.207" y="517.241" shape-rendering="crispEdges" width="34.483" height="34.483"/>
	<rect x="655.173" y="517.241" shape-rendering="crispEdges" width="34.482" height="34.483"/>
	<rect x="689.655" y="517.241" shape-rendering="crispEdges" width="34.483" height="34.483"/>
	<rect x="724.139" y="517.241" shape-rendering="crispEdges" width="34.482" height="34.483"/>
	<rect x="758.621" y="517.241" shape-rendering="crispEdges" width="34.482" height="34.483"/>
	<rect x="793.104" y="517.241" shape-rendering="crispEdges" width="34.483" height="34.483"/>
	<rect x="965.519" y="517.241" shape-rendering="crispEdges" width="34.481" height="34.483"/>
	<rect x="68.965" y="551.725" shape-rendering="crispEdges" width="34.483" height="34.482"/>
	<rect x="103.448" y="551.725" shape-rendering="crispEdges" width="34.482" height="34.482"/>
	<rect x="137.93" y="551.725" shape-rendering="crispEdges" width="34.483" height="34.482"/>
	<rect x="206.896" y="551.725" shape-rendering="crispEdges" width="34.482" height="34.482"/>
	<rect x="241.378" y="551.725" shape-rendering="crispEdges" width="34.483" height="34.482"/>
	<rect x="275.862" y="551.725" shape-rendering="crispEdges" width="34.483" height="34.482"/>
	<rect x="310.345" y="551.725" shape-rendering="crispEdges" width="34.482" height="34.482"/>
	<rect x="344.827" y="551.725" shape-rendering="crispEdges" width="34.483" height="34.482"/>
	<rect x="379.31" y="551.725" shape-rendering="crispEdges" width="34.483" height="34.482"/>
	<rect x="448.275" y="551.725" shape-rendering="crispEdges" width="34.483" height="34.482"/>
	<rect x="482.759" y="551.725" shape-rendering="crispEdges" width="34.482" height="34.482"/>
	<rect x="517.241" y="551.725" shape-rendering="crispEdges" width="34.483" height="34.482"/>
	<rect x="655.173" y="551.725" shape-rendering="crispEdges" width="34.482" height="34.482"/>
	<rect x="758.621" y="551.725" shape-rendering="crispEdges" width="34.482" height="34.482"/>
	<rect x="862.069" y="551.725" shape-rendering="crispEdges" width="34.482" height="34.482"/>
	<rect x="896.552" y="551.725" shape-rendering="crispEdges" width="34.483" height="34.482"/>
	<rect x="965.519" y="551.725" shape-rendering="crispEdges" width="34.481" height="34.482"/>
	<rect x="34.482" y="586.207" shape-rendering="crispEdges" width="34.483" height="34.482"/>
	<rect x="68.965" y="586.207" shape-rendering="crispEdges" width="34.483" height="34.482"/>
	<rect x="103.448" y="586.207" shape-rendering="crispEdges" width="34.482" height="34.482"/>
	<rect x="137.93" y="586.207" shape-rendering="crispEdges" width="34.483" height="34.482"/>
	<rect x="172.414" y="586.207" shape-rendering="crispEdges" width="34.483" height="34.482"/>
	<rect x="275.862" y="586.207" shape-rendering="crispEdges" width="34.483" height="34.482"/>
	<rect x="310.345" y="586.207" shape-rendering="crispEdges" width="34.482" height="34.482"/>
	<rect x="379.31" y="586.207" shape-rendering="crispEdges" width="34.483" height="34.482"/>
	<rect x="413.793" y="586.207" shape-rendering="crispEdges" width="34.482" height="34.482"/>
	<rect x="448.275" y="586.207" shape-rendering="crispEdges" width="34.483" height="34.482"/>
	<rect x="482.759" y="586.207" shape-rendering="crispEdges" width="34.482" height="34.482"/>
	<rect x="551.725" y="586.207" shape-rendering="crispEdges" width="34.482" height="34.482"/>
	<rect x="620.69" y="586.207" shape-rendering="crispEdges" width="34.482" height="34.482"/>
	<rect x="655.173" y="586.207" shape-rendering="crispEdges" width="34.482" height="34.482"/>
	<rect x="689.655" y="586.207" shape-rendering="crispEdges" width="34.483" height="34.482"/>
	<rect x="724.139" y="586.207" shape-rendering="crispEdges" width="34.482" height="34.482"/>
	<rect x="793.104" y="586.207" shape-rendering="crispEdges" width="34.483" height="34.482"/>
	<rect x="862.069" y="586.207" shape-rendering="crispEdges" width="34.482" height="34.482"/>
	<rect y="620.689" shape-rendering="crispEdges" width="34.482" height="34.483"/>
	<rect x="34.482" y="620.689" shape-rendering="crispEdges" width="34.483" height="34.483"/>
	<rect x="103.448" y="620.689" shape-rendering="crispEdges" width="34.482" height="34.483"/>
	<rect x="206.896" y="620.689" shape-rendering="crispEdges" width="34.482" height="34.483"/>
	<rect x="275.862" y="620.689" shape-rendering="crispEdges" width="34.483" height="34.483"/>
	<rect x="517.241" y="620.689" shape-rendering="crispEdges" width="34.483" height="34.483"/>
	<rect x="551.725" y="620.689" shape-rendering="crispEdges" width="34.482" height="34.483"/>
	<rect x="689.655" y="620.689" shape-rendering="crispEdges" width="34.483" height="34.483"/>
	<rect x="758.621" y="620.689" shape-rendering="crispEdges" width="34.482" height="34.483"/>
	<rect x="793.104" y="620.689" shape-rendering="crispEdges" width="34.483" height="34.483"/>
	<rect x="931.035" y="620.689" shape-rendering="crispEdges" width="34.483" height="34.483"/>
	<rect x="965.519" y="620.689" shape-rendering="crispEdges" width="34.481" height="34.483"/>
	<rect x="172.414" y="655.173" shape-rendering="crispEdges" width="34.483" height="34.482"/>
	<rect x="241.378" y="655.173" shape-rendering="crispEdges" width="34.483" height="34.482"/>
	<rect x="275.862" y="655.173" shape-rendering="crispEdges" width="34.483" height="34.482"/>
	<rect x="379.31" y="655.173" shape-rendering="crispEdges" width="34.483" height="34.482"/>
	<rect x="448.275" y="655.173" shape-rendering="crispEdges" width="34.483" height="34.482"/>
	<rect x="517.241" y="655.173" shape-rendering="crispEdges" width="34.483" height="34.482"/>
	<rect x="551.725" y="655.173" shape-rendering="crispEdges" width="34.482" height="34.482"/>
	<rect x="586.207" y="655.173" shape-rendering="crispEdges" width="34.483" height="34.482"/>
	<rect x="655.173" y="655.173" shape-rendering="crispEdges" width="34.482" height="34.482"/>
	<rect x="689.655" y="655.173" shape-rendering="crispEdges" width="34.483" height="34.482"/>
	<rect x="758.621" y="655.173" shape-rendering="crispEdges" width="34.482" height="34.482"/>
	<rect x="793.104" y="655.173" shape-rendering="crispEdges" width="34.483" height="34.482"/>
	<rect x="965.519" y="655.173" shape-rendering="crispEdges" width="34.481" height="34.482"/>
	<rect y="689.655" shape-rendering="crispEdges" width="34.482" height="34.483"/>
	<rect x="34.482" y="689.655" shape-rendering="crispEdges" width="34.483" height="34.483"/>
	<rect x="68.965" y="689.655" shape-rendering="crispEdges" width="34.483" height="34.483"/>
	<rect x="137.93" y="689.655" shape-rendering="crispEdges" width="34.483" height="34.483"/>
	<rect x="172.414" y="689.655" shape-rendering="crispEdges" width="34.483" height="34.483"/>
	<rect x="206.896" y="689.655" shape-rendering="crispEdges" width="34.482" height="34.483"/>
	<rect x="241.378" y="689.655" shape-rendering="crispEdges" width="34.483" height="34.483"/>
	<rect x="448.275" y="689.655" shape-rendering="crispEdges" width="34.483" height="34.483"/>
	<rect x="517.241" y="689.655" shape-rendering="crispEdges" width="34.483" height="34.483"/>
	<rect x="551.725" y="689.655" shape-rendering="crispEdges" width="34.482" height="34.483"/>
	<rect x="586.207" y="689.655" shape-rendering="crispEdges" width="34.483" height="34.483"/>
	<rect x="655.173" y="689.655" shape-rendering="crispEdges" width="34.482" height="34.483"/>
	<rect x="689.655" y="689.655" shape-rendering="crispEdges" width="34.483" height="34.483"/>
	<rect x="724.139" y="689.655" shape-rendering="crispEdges" width="34.482" height="34.483"/>
	<rect x="758.621" y="689.655" shape-rendering="crispEdges" width="34.482" height="34.483"/>
	<rect x="793.104" y="689.655" shape-rendering="crispEdges" width="34.483" height="34.483"/>
	<rect x="827.587" y="689.655" shape-rendering="crispEdges" width="34.482" height="34.483"/>
	<rect x="931.035" y="689.655" shape-rendering="crispEdges" width="34.483" height="34.483"/>
	<rect x="965.519" y="689.655" shape-rendering="crispEdges" width="34.481" height="34.483"/>
	<rect x="275.862" y="724.139" shape-rendering="crispEdges" width="34.483" height="34.482"/>
	<rect x="344.827" y="724.139" shape-rendering="crispEdges" width="34.483" height="34.482"/>
	<rect x="379.31" y="724.139" shape-rendering="crispEdges" width="34.483" height="34.482"/>
	<rect x="551.725" y="724.139" shape-rendering="crispEdges" width="34.482" height="34.482"/>
	<rect x="620.69" y="724.139" shape-rendering="crispEdges" width="34.482" height="34.482"/>
	<rect x="655.173" y="724.139" shape-rendering="crispEdges" width="34.482" height="34.482"/>
	<rect x="689.655" y="724.139" shape-rendering="crispEdges" width="34.483" height="34.482"/>
	<rect x="827.587" y="724.139" shape-rendering="crispEdges" width="34.482" height="34.482"/>
	<rect x="275.862" y="758.621" shape-rendering="crispEdges" width="34.483" height="34.482"/>
	<rect x="310.345" y="758.621" shape-rendering="crispEdges" width="34.482" height="34.482"/>
	<rect x="344.827" y="758.621" shape-rendering="crispEdges" width="34.483" height="34.482"/>
	<rect x="413.793" y="758.621" shape-rendering="crispEdges" width="34.482" height="34.482"/>
	<rect x="448.275" y="758.621" shape-rendering="crispEdges" width="34.483" height="34.482"/>
	<rect x="482.759" y="758.621" shape-rendering="crispEdges" width="34.482" height="34.482"/>
	<rect x="551.725" y="758.621" shape-rendering="crispEdges" width="34.482" height="34.482"/>
	<rect x="689.655" y="758.621" shape-rendering="crispEdges" width="34.483" height="34.482"/>
	<rect x="758.621" y="758.621" shape-rendering="crispEdges" width="34.482" height="34.482"/>
	<rect x="827.587" y="758.621" shape-rendering="crispEdges" width="34.482" height="34.482"/>
	<rect x="965.519" y="758.621" shape-rendering="crispEdges" width="34.481" height="34.482"/>
	<rect x="310.345" y="793.104" shape-rendering="crispEdges" width="34.482" height="34.483"/>
	<rect x="344.827" y="793.104" shape-rendering="crispEdges" width="34.483" height="34.483"/>
	<rect x="413.793" y="793.104" shape-rendering="crispEdges" width="34.482" height="34.483"/>
	<rect x="482.759" y="793.104" shape-rendering="crispEdges" width="34.482" height="34.483"/>
	<rect x="517.241" y="793.104" shape-rendering="crispEdges" width="34.483" height="34.483"/>
	<rect x="551.725" y="793.104" shape-rendering="crispEdges" width="34.482" height="34.483"/>
	<rect x="689.655" y="793.104" shape-rendering="crispEdges" width="34.483" height="34.483"/>
	<rect x="827.587" y="793.104" shape-rendering="crispEdges" width="34.482" height="34.483"/>
	<rect x="896.552" y="793.104" shape-rendering="crispEdges" width="34.483" height="34.483"/>
	<rect x="965.519" y="793.104" shape-rendering="crispEdges" width="34.481" height="34.483"/>
	<rect x="310.345" y="827.587" shape-rendering="crispEdges" width="34.482" height="34.482"/>
	<rect x="413.793" y="827.587" shape-rendering="crispEdges" width="34.482" height="34.482"/>
	<rect x="448.275" y="827.587" shape-rendering="crispEdges" width="34.483" height="34.482"/>
	<rect x="482.759" y="827.587" shape-rendering="crispEdges" width="34.482" height="34.482"/>
	<rect x="517.241" y="827.587" shape-rendering="crispEdges" width="34.483" height="34.482"/>
	<rect x="551.725" y="827.587" shape-rendering="crispEdges" width="34.482" height="34.482"/>
	<rect x="586.207" y="827.587" shape-rendering="crispEdges" width="34.483" height="34.482"/>
	<rect x="655.173" y="827.587" shape-rendering="crispEdges" width="34.482" height="34.482"/>
	<rect x="689.655" y="827.587" shape-rendering="crispEdges" width="34.483" height="34.482"/>
	<rect x="724.139" y="827.587" shape-rendering="crispEdges" width="34.482" height="34.482"/>
	<rect x="758.621" y="827.587" shape-rendering="crispEdges" width="34.482" height="34.482"/>
	<rect x="793.104" y="827.587" shape-rendering="crispEdges" width="34.483" height="34.482"/>
	<rect x="827.587" y="827.587" shape-rendering="crispEdges" width="34.482" height="34.482"/>
	<rect x="862.069" y="827.587" shape-rendering="crispEdges" width="34.482" height="34.482"/>
	<rect x="931.035" y="827.587" shape-rendering="crispEdges" width="34.483" height="34.482"/>
	<rect x="344.827" y="862.069" shape-rendering="crispEdges" width="34.483" height="34.482"/>
	<rect x="482.759" y="862.069" shape-rendering="crispEdges" width="34.482" height="34.482"/>
	<rect x="620.69" y="862.069" shape-rendering="crispEdges" width="34.482" height="34.482"/>
	<rect x="689.655" y="862.069" shape-rendering="crispEdges" width="34.483" height="34.482"/>
	<rect x="793.104" y="862.069" shape-rendering="crispEdges" width="34.483" height="34.482"/>
	<rect x="827.587" y="862.069" shape-rendering="crispEdges" width="34.482" height="34.482"/>
	<rect x="931.035" y="862.069" shape-rendering="crispEdges" width="34.483" height="34.482"/>
	<rect x="275.862" y="896.552" shape-rendering="crispEdges" width="34.483" height="34.483"/>
	<rect x="413.793" y="896.552" shape-rendering="crispEdges" width="34.482" height="34.483"/>
	<rect x="448.275" y="896.552" shape-rendering="crispEdges" width="34.483" height="34.483"/>
	<rect x="551.725" y="896.552" shape-rendering="crispEdges" width="34.482" height="34.483"/>
	<rect x="689.655" y="896.552" shape-rendering="crispEdges" width="34.483" height="34.483"/>
	<rect x="724.139" y="896.552" shape-rendering="crispEdges" width="34.482" height="34.483"/>
	<rect x="862.069" y="896.552" shape-rendering="crispEdges" width="34.482" height="34.483"/>
	<rect x="931.035" y="896.552" shape-rendering="crispEdges" width="34.483" height="34.483"/>
	<rect x="965.519" y="896.552" shape-rendering="crispEdges" width="34.481" height="34.483"/>
	<rect x="517.241" y="931.035" shape-rendering="crispEdges" width="34.483" height="34.482"/>
	<rect x="551.725" y="931.035" shape-rendering="crispEdges" width="34.482" height="34.482"/>
	<rect x="620.69" y="931.035" shape-rendering="crispEdges" width="34.482" height="34.482"/>
	<rect x="689.655" y="931.035" shape-rendering="crispEdges" width="34.483" height="34.482"/>
	<rect x="827.587" y="931.035" shape-rendering="crispEdges" width="34.482" height="34.482"/>
	<rect x="862.069" y="931.035" shape-rendering="crispEdges" width="34.482" height="34.482"/>
	<rect x="896.552" y="931.035" shape-rendering="crispEdges" width="34.483" height="34.482"/>
	<rect x="931.035" y="931.035" shape-rendering="crispEdges" width="34.483" height="34.482"/>
	<rect x="965.519" y="931.035" shape-rendering="crispEdges" width="34.481" height="34.482"/>
	<rect x="275.862" y="965.518" shape-rendering="crispEdges" width="34.483" height="34.482"/>
	<rect x="310.345" y="965.518" shape-rendering="crispEdges" width="34.482" height="34.482"/>
	<rect x="379.31" y="965.518" shape-rendering="crispEdges" width="34.483" height="34.482"/>
	<rect x="517.241" y="965.518" shape-rendering="crispEdges" width="34.483" height="34.482"/>
	<rect x="620.69" y="965.518" shape-rendering="crispEdges" width="34.482" height="34.482"/>
	<rect x="724.139" y="965.518" shape-rendering="crispEdges" width="34.482" height="34.482"/>
	<rect x="793.104" y="965.518" shape-rendering="crispEdges" width="34.483" height="34.482"/>
	<rect x="827.587" y="965.518" shape-rendering="crispEdges" width="34.482" height="34.482"/>
	<rect x="965.519" y="965.518" shape-rendering="crispEdges" width="34.481" height="34.482"/>
	<rect x="827.587" y="68.965" shape-rendering="crispEdges" width="103.448" height="103.448"/>
	<path d="M758.621,0v241.38H1000V0H758.621z M965.519,206.896H793.104V34.483h172.415V206.896z"/>
	<rect x="68.965" y="68.966" shape-rendering="crispEdges" width="103.448" height="103.448"/>
	<path d="M0,0v241.38h241.378V0H0z M206.896,206.898H34.482V34.483h172.415V206.898z"/>
	<rect x="68.965" y="827.588" shape-rendering="crispEdges" width="103.448" height="103.447"/>
	<path d="M0,758.621V1000h241.378V758.621H0z M206.896,965.518H34.482V793.104h172.415V965.518z"/>
</g>
</svg>
